<?xml version="1.0" encoding="UTF-8" standalone="no"?>
<svg
   xmlns:dc="http://purl.org/dc/elements/1.1/"
   xmlns:cc="http://creativecommons.org/ns#"
   xmlns:rdf="http://www.w3.org/1999/02/22-rdf-syntax-ns#"
   xmlns:svg="http://www.w3.org/2000/svg"
   xmlns="http://www.w3.org/2000/svg"
   version="1.1"
   x="0px"
   y="0px"
   viewBox="0 0 42.078423 37.870579"
   xml:space="preserve"
   id="svg843"
   width="42.078423"
   height="37.870579">
  <metadata
   id="metadata849">
    <rdf:RDF>
      <cc:Work
   rdf:about="">
        <dc:format>image/svg+xml</dc:format>

        <dc:type
   rdf:resource="http://purl.org/dc/dcmitype/StillImage" />

        <dc:title></dc:title>

      </cc:Work>

    </rdf:RDF>

  </metadata>

  <defs
   id="defs847">
    <style
   type="text/css"
   id="style833">
   
    .fil0 {fill:black}
   
  </style>

  </defs>

  
<g
   style="fill:#c0c6c9;fill-opacity:1"
   transform="matrix(1.2089428,0,0,1.2089428,-4.291915,-9.2250903)"
   id="g883">
  <polygon
     transform="matrix(1.0637294,0,0,1.0637294,-2.1864661,1.1655391)"
     style="fill:#c0c6c9;fill-opacity:1"
     points="36.029,33.921 36.029,29.243 38,29.243 34.201,25.45 30.4,29.243 32.371,29.243 32.371,33.921 "
     id="polygon854" />
  <path
     style="fill:#c0c6c9;fill-opacity:1;stroke-width:1.06373"
     d="m 16.931237,10.713574 c -7.2354865,0 -13.1030177,5.866467 -13.1030177,13.103018 0,7.236551 5.8675312,13.100891 13.1030177,13.100891 3.61668,0 6.892967,-1.466883 9.26402,-3.836872 l -9.26402,-9.264019 z"
     id="path856" />
  <path
     style="fill:#c0c6c9;fill-opacity:1;stroke-width:1.06373"
     d="m 23.648688,18.246905 c 0,0.533992 0.394644,0.882896 0.864812,1.124362 v -2.140223 c -0.470168,0.124456 -0.864812,0.444639 -0.864812,1.015861 z"
     id="path858" />
  <path
     style="fill:#c0c6c9;fill-opacity:1;stroke-width:1.06373"
     d="m 25.298533,20.693483 v 2.499764 c 0.61909,-0.09574 1.2552,-0.455276 1.2552,-1.181804 -0.0011,-0.69887 -0.615899,-1.045646 -1.2552,-1.31796 z"
     id="path860" />
  <path
     style="fill:#c0c6c9;fill-opacity:1;stroke-width:1.06373"
     d="m 18.838504,9.759409 v 13.103018 l 9.264019,9.264019 c 2.371053,-2.371053 3.839,-5.647339 3.839,-9.264019 C 31.942623,15.62694 26.075055,9.759409 18.838504,9.759409 Z m 6.460029,14.470974 v 1.196695 H 24.5135 v -1.198823 c -1.035008,-0.155304 -2.064698,-0.752056 -2.129586,-2.216812 h 0.978631 c 0.07659,0.623346 0.56484,1.020117 1.150955,1.157338 v -2.785907 c -0.953101,-0.365923 -2.013639,-0.874386 -2.013639,-2.135969 0,-1.348809 1.011606,-1.985983 2.013639,-2.162562 v -1.105214 h 0.785033 v 1.113724 c 1.379657,0.126584 1.990237,0.897788 2.04236,2.035978 h -0.957356 c -0.106373,-0.540374 -0.560586,-0.84141 -1.085004,-0.926508 v 2.474234 c 0.02659,0.0085 0.05851,0.01915 0.0851,0.02659 1.128617,0.403153 2.31893,0.947783 2.31893,2.31893 -0.0011,1.580702 -1.386039,2.095547 -2.404028,2.208302 z"
     id="path862" />
</g>
</svg>
