<?xml version="1.0" encoding="UTF-8" standalone="no"?>
<svg
   xmlns:dc="http://purl.org/dc/elements/1.1/"
   xmlns:cc="http://creativecommons.org/ns#"
   xmlns:rdf="http://www.w3.org/1999/02/22-rdf-syntax-ns#"
   xmlns:svg="http://www.w3.org/2000/svg"
   xmlns="http://www.w3.org/2000/svg"
   xmlns:sodipodi="http://sodipodi.sourceforge.net/DTD/sodipodi-0.dtd"
   xmlns:inkscape="http://www.inkscape.org/namespaces/inkscape"
   sodipodi:docname="caregiver_child_ratio_icon.svg"
   inkscape:version="1.0beta1 (32d4812, 2019-09-19)"
   id="svg8"
   version="1.1"
   viewBox="0 0 24.177975 24.945408"
   height="24.945408mm"
   width="24.177975mm">
  <defs
     id="defs2" />
  <sodipodi:namedview
     inkscape:window-maximized="1"
     inkscape:window-y="23"
     inkscape:window-x="0"
     inkscape:window-height="932"
     inkscape:window-width="1680"
     fit-margin-bottom="0"
     fit-margin-right="0"
     fit-margin-left="0"
     fit-margin-top="0"
     showgrid="false"
     inkscape:document-rotation="0"
     inkscape:current-layer="layer1"
     inkscape:document-units="mm"
     inkscape:cy="-48.509773"
     inkscape:cx="24.965064"
     inkscape:zoom="2.1201145"
     inkscape:pageshadow="2"
     inkscape:pageopacity="0.0"
     borderopacity="1.0"
     bordercolor="#666666"
     pagecolor="#ffffff"
     id="base" />
  <metadata
     id="metadata5">
    <rdf:RDF>
      <cc:Work
         rdf:about="">
        <dc:format>image/svg+xml</dc:format>
        <dc:type
           rdf:resource="http://purl.org/dc/dcmitype/StillImage" />
        <dc:title></dc:title>
      </cc:Work>
    </rdf:RDF>
  </metadata>
  <g
     transform="translate(19.242532,-272.36956)"
     id="layer1"
     inkscape:groupmode="layer"
     inkscape:label="Lager 1">
    <g
       style="fill:#c0c6c9;fill-opacity:1"
       transform="matrix(0.10955943,0,0,0.10955943,-19.242532,272.36949)"
       id="g452">
      <g
         style="fill:#c0c6c9;fill-opacity:1"
         id="g415">
        <path
           style="fill:#c0c6c9;fill-opacity:1"
           inkscape:connector-curvature="0"
           d="m 141.857,160.298 c -1.304,0.811 -2.839,1.277 -4.475,1.277 -0.325,0 -0.656,-0.018 -0.983,-0.057 -2.246,-0.256 -4.27,-1.376 -5.681,-3.154 -1.416,-1.774 -2.055,-3.996 -1.793,-6.252 1.615,-14.186 4.694,-26.072 9.175,-35.549 0.442,-4.392 1.379,-8.384 2.807,-11.961 l -6.438,-33.136 c 0.159,0.195 0.314,0.376 0.475,0.58 3.769,4.818 7.957,12.15 11.635,23.173 0.504,-0.577 1.02,-1.142 1.566,-1.68 2.694,-2.656 5.858,-4.765 9.412,-6.298 -4.269,-11.561 -9.224,-19.629 -14.081,-25.289 -8.437,-9.878 -16.555,-12.017 -18.72,-12.362 -0.53,-0.131 -1.476,-0.356 -2.713,-0.611 -0.201,9.572 -6.153,17.256 -13.481,17.256 -7.33,0 -13.28,-7.683 -13.481,-17.256 -1.237,0.255 -2.184,0.48 -2.714,0.611 -2.165,0.346 -10.283,2.484 -18.722,12.362 -2.682,3.124 -5.392,6.989 -8,11.763 2.06,1.254 3.96,2.721 5.671,4.408 1.537,1.515 2.899,3.185 4.106,4.989 2.441,-5.017 4.926,-8.813 7.236,-11.669 l -3.633,18.698 c 1.989,5.224 3,11.272 3,18.123 v 3.837 c 3.604,11.949 5.382,27.605 5.399,47.364 l -0.004,1.61 -0.002,0.796 c -0.011,2.15 -0.832,4.107 -2.163,5.602 0.537,0.107 1.081,0.213 1.638,0.314 v 49.902 c 0,5.523 4.477,10 10,10 5.521,0 10,-4.477 10,-10 V 169.71 c 0.554,0.008 1.105,0.017 1.668,0.017 0.563,0 1.113,-0.009 1.666,-0.017 v 47.979 c 0,5.523 4.477,10 10,10 5.52,0 10,-4.477 10,-10 V 167.79 c 6.344,-1.166 11.445,-2.664 15.1,-3.943 0.014,-0.159 0.027,-0.319 0.04,-0.479 -1.316,-0.935 -2.496,-1.958 -3.51,-3.07 z M 115.884,77.954 h 14.5 v 5 h -14.5 z"
           id="path375" />
        <path
           style="fill:#c0c6c9;fill-opacity:1"
           inkscape:connector-curvature="0"
           d="m 120.216,39.556 c 4.522,-2.919 7.964,-7.524 9.28,-13.181 2.693,-11.562 -4.498,-23.117 -16.059,-25.81 -11.563,-2.691 -23.117,4.5 -25.811,16.06 -2.115,9.082 1.869,18.157 9.277,22.939 2.024,1.307 4.303,2.295 6.783,2.872 5.908,1.375 11.808,0.167 16.53,-2.88 z"
           id="path377" />
        <path
           style="fill:#c0c6c9;fill-opacity:1"
           inkscape:connector-curvature="0"
           d="m 18.035,129.197 -0.948,-0.455 c -1.242,7.723 -2.1,17.753 -2.089,30.727 0,0.76 0.002,1.518 0.012,2.276 0.006,0.611 -0.057,1.208 -0.174,1.784 1.006,0.568 2.075,1.096 3.199,1.584 z"
           id="path379" />
        <path
           style="fill:#c0c6c9;fill-opacity:1"
           inkscape:connector-curvature="0"
           d="m 19.146,88.023 c 1.439,-0.854 2.938,-1.495 4.451,-1.903 0.576,-0.187 1.168,-0.309 1.76,-0.361 0.303,-0.041 0.572,-0.066 0.76,-0.077 0.141,-0.007 0.291,-0.011 0.441,-0.011 0.309,0 0.613,0.02 0.914,0.051 h 30.476 c 0.309,-0.031 0.621,-0.051 0.936,-0.051 0.141,0 0.285,0.002 0.426,0.011 0.185,0.011 0.455,0.036 0.758,0.077 0.605,0.053 1.201,0.176 1.771,0.363 1.504,0.404 3,1.048 4.451,1.903 2.561,1.501 6.355,4.517 9.865,10.339 1.412,2.355 2.689,4.969 3.833,7.848 C 79.451,89.415 72.323,78.981 62,74.004 57.923,80.353 50.806,84.57 42.717,84.57 34.628,84.57 27.51,80.352 23.432,74.004 13.107,78.981 5.979,89.415 5.442,106.212 9.721,95.35 15.212,90.321 19.146,88.023 Z"
           id="path381" />
        <path
           style="fill:#c0c6c9;fill-opacity:1"
           inkscape:connector-curvature="0"
           d="m 70.42,161.791 c 0.004,-0.83 0.01,-1.587 0.01,-2.322 0.006,-12.989 -0.849,-23.017 -2.086,-30.727 l -0.947,0.453 v 35.919 c 1.122,-0.487 2.189,-1.015 3.195,-1.582 -0.115,-0.567 -0.175,-1.149 -0.172,-1.741 z"
           id="path383" />
        <path
           style="fill:#c0c6c9;fill-opacity:1"
           inkscape:connector-curvature="0"
           d="m 74.443,99.396 c -2.98,-4.944 -6.291,-7.961 -9.17,-9.648 -0.893,-0.527 -1.722,-0.908 -2.48,-1.201 0.21,4.296 0.998,11.399 2.169,18.491 0.194,1.192 0.402,2.388 0.619,3.574 3.488,8.191 6.862,23.094 6.847,48.857 0,0.758 -0.004,1.535 -0.008,2.334 -0.018,3.59 2.877,6.516 6.469,6.533 0.012,0 0.023,0 0.033,0 3.576,0 6.48,-2.889 6.498,-6.469 0.002,-0.799 0.006,-1.598 0.006,-2.398 C 85.398,126.731 80.4,109.329 74.443,99.396 Z"
           id="path385" />
        <path
           style="fill:#c0c6c9;fill-opacity:1"
           inkscape:connector-curvature="0"
           d="M 65.396,148.977 H 20.033 v 68.289 c 0,5.707 4.627,10.334 10.334,10.334 5.705,0 10.332,-4.627 10.332,-10.334 V 170.84 h 4.033 v 46.426 c 0,5.707 4.627,10.334 10.332,10.334 5.705,0 10.332,-4.627 10.332,-10.334 z"
           id="path387" />
        <path
           style="fill:#c0c6c9;fill-opacity:1"
           inkscape:connector-curvature="0"
           d="M 13.01,161.773 C 13.002,161.003 13,160.236 13,159.47 c -0.025,-25.79 3.372,-40.675 6.851,-48.875 0.216,-1.182 0.423,-2.372 0.615,-3.56 1.172,-7.091 1.96,-14.195 2.169,-18.49 -0.759,0.294 -1.586,0.676 -2.479,1.203 -4.355,2.544 -9.525,8.016 -13.4,18.617 -3.9,10.64 -6.748,26.536 -6.756,51.104 0,0.789 0.002,1.598 0.01,2.428 0.033,3.57 2.939,6.438 6.502,6.438 0.02,0 0.041,0 0.061,0 3.591,-0.034 6.47,-2.972 6.437,-6.562 z"
           id="path389" />
        <path
           style="fill:#c0c6c9;fill-opacity:1"
           inkscape:connector-curvature="0"
           d="M 57.758,87.72 H 27.67 c -0.139,4.585 -0.98,12.262 -2.269,20.129 -1.374,8.246 -3.152,16.462 -5.367,21.51 v 15.337 H 65.397 V 129.357 C 63.182,124.309 61.404,116.096 60.031,107.85 58.738,99.981 57.896,92.306 57.758,87.72 Z"
           id="path391" />
        <circle
           style="fill:#c0c6c9;fill-opacity:1"
           cx="42.715"
           cy="61.658001"
           r="20.910999"
           id="circle393" />
        <path
           style="fill:#c0c6c9;fill-opacity:1"
           inkscape:connector-curvature="0"
           d="m 205.737,154.038 c -0.51,-4.445 -1.168,-8.612 -1.98,-12.487 0.863,6.483 1.642,13.119 2.225,19.485 0.789,-0.63 1.505,-1.298 2.148,-2 -1.292,-1.312 -2.17,-3.043 -2.393,-4.998 z"
           id="path395" />
        <path
           style="fill:#c0c6c9;fill-opacity:1"
           inkscape:connector-curvature="0"
           d="m 145.635,104.45 c 6.625,-8.072 13.075,-10.314 15.041,-10.834 2.246,-0.789 4.919,-1.345 7.966,-1.677 -2.628,-0.897 -5.034,-2.273 -7.113,-4.028 -9.93,3.09 -17.618,10.568 -20.495,23.113 1.423,-2.385 2.956,-4.579 4.601,-6.574 z"
           id="path397" />
        <path
           style="fill:#c0c6c9;fill-opacity:1"
           inkscape:connector-curvature="0"
           d="m 182.912,91.939 c 3.056,0.334 5.735,0.891 7.985,1.682 1.958,0.525 8.408,2.776 15.02,10.832 1.645,1.994 3.179,4.187 4.603,6.572 -2.877,-12.545 -10.565,-20.023 -20.495,-23.113 -2.08,1.754 -4.486,3.129 -7.113,4.027 z"
           id="path399" />
        <path
           style="fill:#c0c6c9;fill-opacity:1"
           inkscape:connector-curvature="0"
           d="m 145.817,154.038 c -0.224,1.956 -1.101,3.688 -2.393,5 0.644,0.702 1.36,1.37 2.149,2 0.583,-6.37 1.362,-13.01 2.227,-19.496 -0.813,3.879 -1.475,8.047 -1.983,12.496 z"
           id="path401" />
        <path
           style="fill:#c0c6c9;fill-opacity:1"
           inkscape:connector-curvature="0"
           d="m 156.587,219.327 c 0,4.518 3.662,8.181 8.18,8.181 4.518,0 8.18,-3.663 8.18,-8.181 v -26.238 c -4.975,-0.312 -11.197,-1.372 -16.359,-2.945 v 29.183 z"
           id="path403" />
        <path
           style="fill:#c0c6c9;fill-opacity:1"
           inkscape:connector-curvature="0"
           d="m 178.608,219.327 c 0,4.518 3.662,8.181 8.18,8.181 4.518,0 8.181,-3.663 8.181,-8.181 v -29.184 c -5.162,1.573 -11.387,2.635 -16.36,2.945 v 26.239 z"
           id="path405" />
        <path
           style="fill:#c0c6c9;fill-opacity:1"
           inkscape:connector-curvature="0"
           d="m 204.37,105.722 c -2.361,-2.877 -4.704,-4.97 -6.802,-6.489 0.588,6.514 2.668,17.197 5.081,25.429 0.673,2.295 0.834,5.835 0.868,7.881 1.73,5.683 3.224,12.665 4.206,21.268 0.379,3.317 3.191,5.767 6.453,5.767 0.246,0 0.494,-0.014 0.744,-0.043 3.564,-0.407 6.129,-3.629 5.721,-7.196 -2.767,-24.309 -9.525,-38.44 -16.271,-46.617 z"
           id="path407" />
        <path
           style="fill:#c0c6c9;fill-opacity:1"
           inkscape:connector-curvature="0"
           d="m 143.831,153.812 c 0.983,-8.606 2.475,-15.591 4.206,-21.273 0.034,-2.046 0.196,-5.583 0.868,-7.877 2.411,-8.232 4.491,-18.916 5.079,-25.43 -2.098,1.52 -4.441,3.612 -6.804,6.49 -6.744,8.177 -13.5,22.309 -16.27,46.617 -0.406,3.565 2.156,6.789 5.724,7.193 0.25,0.029 0.5,0.043 0.745,0.043 3.261,0 6.073,-2.446 6.452,-5.763 z"
           id="path409" />
        <path
           style="fill:#c0c6c9;fill-opacity:1"
           inkscape:connector-curvature="0"
           d="m 200.709,134.168 c -4.266,-9.878 -8.142,-29.242 -8.301,-37.899 -0.923,-0.39 -1.644,-0.615 -2.099,-0.733 -2.857,-1.018 -7.42,-1.963 -14.531,-1.963 -7.1,0 -11.658,0.941 -14.516,1.957 -0.452,0.115 -1.183,0.343 -2.118,0.738 -0.156,8.653 -4.029,28.003 -8.296,37.885 -2.277,15.723 -4.328,33.482 -4.328,46.514 0,5.543 19.189,9.768 29.258,9.768 10.066,0 29.258,-4.225 29.258,-9.768 0,-13.027 -2.05,-30.779 -4.327,-46.499 z"
           id="path411" />
        <circle
           style="fill:#c0c6c9;fill-opacity:1"
           cx="175.778"
           cy="70.989998"
           r="20.134001"
           id="circle413" />
      </g>
    </g>
  </g>
</svg>
