<?xml version="1.0" encoding="UTF-8" standalone="no"?>
<svg
   xmlns:dc="http://purl.org/dc/elements/1.1/"
   xmlns:cc="http://creativecommons.org/ns#"
   xmlns:rdf="http://www.w3.org/1999/02/22-rdf-syntax-ns#"
   xmlns:svg="http://www.w3.org/2000/svg"
   xmlns="http://www.w3.org/2000/svg"
   xmlns:sodipodi="http://sodipodi.sourceforge.net/DTD/sodipodi-0.dtd"
   xmlns:inkscape="http://www.inkscape.org/namespaces/inkscape"
   sodipodi:docname="cash_on_hand_icon.svg"
   inkscape:version="1.0beta1 (32d4812, 2019-09-19)"
   id="svg8"
   version="1.1"
   viewBox="0 0 25.608445 25.591822"
   height="25.591822mm"
   width="25.608444mm">
  <defs
     id="defs2" />
  <sodipodi:namedview
     inkscape:window-maximized="1"
     inkscape:window-y="23"
     inkscape:window-x="0"
     inkscape:window-height="932"
     inkscape:window-width="1680"
     fit-margin-bottom="0"
     fit-margin-right="0"
     fit-margin-left="0"
     fit-margin-top="0"
     showgrid="false"
     inkscape:document-rotation="0"
     inkscape:current-layer="layer1"
     inkscape:document-units="mm"
     inkscape:cy="-30.851128"
     inkscape:cx="56.138062"
     inkscape:zoom="2.3702396"
     inkscape:pageshadow="2"
     inkscape:pageopacity="0.0"
     borderopacity="1.0"
     bordercolor="#666666"
     pagecolor="#ffffff"
     id="base" />
  <metadata
     id="metadata5">
    <rdf:RDF>
      <cc:Work
         rdf:about="">
        <dc:format>image/svg+xml</dc:format>
        <dc:type
           rdf:resource="http://purl.org/dc/dcmitype/StillImage" />
        <dc:title></dc:title>
      </cc:Work>
    </rdf:RDF>
  </metadata>
  <g
     transform="translate(20.086811,-271.88146)"
     id="layer1"
     inkscape:groupmode="layer"
     inkscape:label="Lager 1">
    <g
       transform="matrix(0.26458333,0,0,0.26458333,7.5440688,228.75238)"
       id="g278">
      <path
         style="fill:#c0c6c9;fill-opacity:1"
         inkscape:connector-curvature="0"
         d="m -67.993853,198.05755 c 6.7,3.9 17.5,3.9 24.2,0 6.7,-3.9 6.6,-10.1 -0.1,-14 -6.7,-3.9 -17.5,-3.9 -24.2,0 -6.6,3.8 -6.6,10.1 0.1,14 z m 3.1,-6.7 c 0.5,-0.2 1,-0.3 1.5,-0.5 0.4,-0.1 0.6,-0.1 0.8,-0.1 0.1,0.1 0.2,0.1 0.2,0.3 0.3,0.6 0.9,1.2 1.6,1.7 0.1,0.1 0.2,0.2 0.4,0.3 0.4,0.2 0.8,0.4 1.3,0.5 1.3,0.3 2.4,-0.2 2.3,-1 0,-0.3 -0.2,-0.5 -0.4,-0.8 -0.4,-0.6 -1,-1.3 -1.3,-2 -0.5,-1.1 -0.3,-2.1 1.3,-2.9 1.7,-0.9 3.7,-0.9 5.8,-0.4 0.8,0.2 0.8,0.2 1.5,-0.1 0.2,-0.1 0.4,-0.3 0.7,-0.4 0.5,-0.3 0.7,-0.3 1.2,0 0.2,0.1 0.3,0.2 0.5,0.3 1,0.6 1,0.6 0,1.2 -0.7,0.4 -0.7,0.4 -0.1,0.9 0.5,0.4 0.8,0.8 1.1,1.2 0.2,0.2 0.1,0.4 -0.3,0.5 -0.6,0.2 -1.1,0.4 -1.7,0.5 -0.4,0.1 -0.6,0.1 -0.7,0 -0.1,-0.1 -0.2,-0.1 -0.2,-0.3 -0.4,-0.6 -0.9,-1.1 -1.7,-1.6 -0.1,-0.1 -0.2,-0.1 -0.3,-0.2 -0.2,-0.1 -0.5,-0.2 -0.8,-0.3 -1.1,-0.3 -2.1,0.2 -2,0.9 0.1,0.3 0.3,0.7 0.5,1 0.4,0.6 0.8,1.1 1.1,1.7 0.9,1.9 -1.1,3.7 -4.3,3.9 -1.2,0.1 -2.3,-0.1 -3.3,-0.4 -0.4,-0.1 -0.8,-0.1 -1.1,0.1 -0.3,0.2 -0.7,0.4 -1.1,0.6 -0.3,0.2 -0.7,0.2 -1,0 -0.2,-0.1 -0.5,-0.3 -0.7,-0.4 -0.2,-0.1 -0.3,-0.2 -0.5,-0.3 -0.3,-0.2 -0.3,-0.4 0,-0.6 0.3,-0.2 0.5,-0.3 0.8,-0.5 0.6,-0.3 0.6,-0.4 0.1,-0.7 -0.6,-0.5 -1.1,-1 -1.5,-1.5 -0.5,-0.3 -0.4,-0.4 0.3,-0.6 z m 23.3,7.9 c 1.8,-1.1 4.8,-1.1 6.7,0 1.9,1.1 1.9,2.8 0,3.9 -1.8,1.1 -4.8,1.1 -6.7,0 -1.9,-1.1 -1.9,-2.8 0,-3.9 z m -35.3,-20.4 c 1.8,-1.1 4.8,-1.1 6.7,0 1.9,1.1 1.9,2.8 0,3.9 -1.8,1.1 -4.8,1.1 -6.7,0 -1.8,-1.1 -1.9,-2.8 0,-3.9 z m -25.099997,8.3 52.799997,30.5 c 3.1,1.8 8,1.8 11,0 l 28.3000007,-16.4 c 3,-1.8 3,-4.6 0,-6.4 l -52.8000007,-30.5 c -3.1,-1.8 -8,-1.8 -11,0 l -28.299997,16.4 c -3,1.8 -3,4.7 0,6.4 z m 11.499997,-6.4 c -0.3,-0.2 -0.7,-0.4 -1.1,-0.5 l 16.9,-9.9 c 0.3,0.2 0.6,0.4 0.9,0.6 3.1,1.8 8.1,1.8 11.2,0 0.4,-0.2 0.7,-0.4 0.9,-0.7 l 41.1,23.7 c -0.5,0.2 -1.1,0.4 -1.5,0.7 -3.1,1.8 -3.1,4.7 0,6.5 0.5,0.3 1,0.5 1.6,0.7 l -17.1,9.9 c -0.3,-0.3 -0.7,-0.6 -1.2,-0.9 -3.1,-1.8 -8.1,-1.8 -11.2,0 -0.2,0.1 -0.4,0.3 -0.6,0.4 l -41,-23.7 c 0.4,-0.2 0.8,-0.3 1.1,-0.5 3.1,-1.6 3.1,-4.5 0,-6.3 z m -12.799997,12.5 c 1.3,-0.7 3.399997,-0.6 4.699997,0.2 l 55.2,31.9 29.8,-17.3 c 1.3,-0.8 3.4,-0.8 4.7000007,0 1.3,0.8 1.3,2 0,2.7 l -31.7000007,18.4 c -1.6,0.9 -4.1,0.9 -5.6,0 l -1.1,-0.6 -0.8,-0.5 -55.299997,-32 c -1.4,-0.8 -1.4,-2 0.1,-2.8 z m 94.4999977,27.4 -31.7000007,18.4 c -1.6,0.9 -4.1,0.9 -5.6,0 l -1.1,-0.6 -0.8,-0.5 -55.399997,-31.9 c -1.3,-0.8 -1.3,-2.1 0.1,-2.8 1.3,-0.7 3.399997,-0.6 4.699997,0.2 l 55.2,31.9 29.8,-17.3 c 1.3,-0.8 3.4,-0.8 4.7000007,0 1.4,0.6 1.4,1.8 0.1,2.6 z m -94.4999977,-7.4 c 1.3,-0.7 3.399997,-0.6 4.699997,0.1 l 55.2,31.9 29.8,-17.3 c 1.3,-0.8 3.4,-0.8 4.7000007,0 1.3,0.8 1.3,2 0,2.7 l -31.7000007,18.4 c -1.6,0.9 -4.1,0.9 -5.6,0 l -1.1,-0.7 -0.8,-0.5 -55.299997,-31.8 c -1.4,-0.8 -1.4,-2.1 0.1,-2.8 z m 94.4999977,27.3 -31.7000007,18.5 c -1.6,0.9 -4.1,0.9 -5.6,0 l -1.2,-0.7 -0.8,-0.5 -55.299997,-31.9 c -1.3,-0.8 -1.3,-2.1 0.1,-2.8 1.3,-0.7 3.399997,-0.6 4.699997,0.2 l 55.2,31.9 29.8,-17.3 c 1.3,-0.8 3.4,-0.8 4.7000007,0 1.4,0.7 1.4,1.9 0.1,2.6 z"
         id="path261" />
    </g>
  </g>
</svg>
