<?xml version="1.0" encoding="UTF-8" standalone="no"?>
<svg
   xmlns:dc="http://purl.org/dc/elements/1.1/"
   xmlns:cc="http://creativecommons.org/ns#"
   xmlns:rdf="http://www.w3.org/1999/02/22-rdf-syntax-ns#"
   xmlns:svg="http://www.w3.org/2000/svg"
   xmlns="http://www.w3.org/2000/svg"
   xmlns:sodipodi="http://sodipodi.sourceforge.net/DTD/sodipodi-0.dtd"
   xmlns:inkscape="http://www.inkscape.org/namespaces/inkscape"
   inkscape:version="1.0beta1 (32d4812, 2019-09-19)"
   sodipodi:docname="house_prices.svg"
   height="34.925503"
   width="38.953266"
   id="svg843"
   xml:space="preserve"
   viewBox="0 0 38.953266 34.925503"
   y="0px"
   x="0px"
   version="1.1"><sodipodi:namedview
   inkscape:current-layer="svg843"
   inkscape:window-maximized="1"
   inkscape:window-y="23"
   inkscape:window-x="0"
   inkscape:cy="36.519491"
   inkscape:cx="-25.000009"
   inkscape:zoom="5.5695991"
   fit-margin-bottom="0"
   fit-margin-right="0"
   fit-margin-left="0"
   fit-margin-top="0"
   inkscape:snap-global="false"
   showgrid="false"
   id="namedview843"
   inkscape:window-height="932"
   inkscape:window-width="1680"
   inkscape:pageshadow="2"
   inkscape:pageopacity="0"
   guidetolerance="10"
   gridtolerance="10"
   objecttolerance="10"
   borderopacity="1"
   inkscape:document-rotation="0"
   bordercolor="#666666"
   pagecolor="#ffffff" />

  <metadata
   id="metadata849">
    <rdf:RDF>
      <cc:Work
   rdf:about="">
        <dc:format>image/svg+xml</dc:format>


        <dc:type
   rdf:resource="http://purl.org/dc/dcmitype/StillImage" />


        <dc:title></dc:title>


      </cc:Work>


    </rdf:RDF>


  </metadata>


  <defs
   id="defs847">
    <style
   id="style833"
   type="text/css">
   
    .fil0 {fill:black}
   
  </style>


  </defs>


  

<g
   transform="matrix(0.09172492,0,0,0.09172492,-88.875338,-0.53863867)"
   id="g1193">
  <g
     style="fill:#c0c6c9;fill-opacity:1"
     transform="matrix(0.56426047,0,0,0.56426047,983.83607,-148.37571)"
     id="g1175">
    <path
       style="fill:#c0c6c9;fill-opacity:1"
       inkscape:connector-curvature="0"
       d="m 349.83901,273.36318 c -22.963,0 -41.577,18.614 -41.577,41.576 0,14.586 7.613,27.464 19.031,34.912 v 38.06 H 64.379007 c -12.413,0 -22.546,9.95 -22.546,22.426 0,12.474 10.133,22.666 22.546,22.666 h 37.819003 l -26.909003,56.85 c 9.309,-4.159 19.392,-7.175 29.818003,-8.848 l 20.485,-43.395 20.485,43.395 c 10.489,1.613 20.509,4.562 29.819,8.969 l -26.91,-57.092 h 178.186 v 480.858 h -120.124 c -18.991,0 -34.425,15.435 -34.425,34.424 h 354.069 c 0.186,-18.927 -15.193,-34.304 -34.184,-34.304 h -120.123 v -480.857 h 178.064 l -55.758,117.942 48.97,-48.971 30.425,-64.364 30.545,64.364 48.729,48.728 -55.758,-117.699 h 37.697 c 12.475,0 22.546,-10.192 22.546,-22.666 0,-12.476 -10.071,-22.426 -22.546,-22.426 h -262.914 v -38.06 c 11.482,-7.386 19.03,-20.264 19.03,-34.912 0,-22.962 -18.613,-41.576 -41.576,-41.576 z m -224.247,229.097 c -55.793003,0 -101.093003,45.299 -101.093003,101.092 0,55.235 44.53,100.042 99.517003,100.972 H -0.59199303 l 18.42500003,-38.91 c -5.151,-9.061 -9.335,-18.852 -11.879,-29.093 l -32.365,68.245 h 0.242 c 0.248,36.803 30.046,66.426 66.911,66.426 H 210.92701 c 36.492,0 66.299,-29.685 66.546,-66.426 h 0.243 l -32.485,-68.245 c -2.545,10.241 -6.669,19.969 -11.758,29.093 l 18.425,38.91 h -124.608 c 54.986,-0.93 99.515,-45.737 99.515,-100.972 0,-55.732 -45.419,-101.092 -101.213,-101.092 z m 448.494,2.181 -94.427,94.184 h 26.547 v 87.76 17.454 0.485 h -58.304 l 34.91,-73.82 v -8.484 h -21.82 l -39.03,82.546 h 0.242 c 0.249,36.803 30.045,66.426 66.911,66.426 h 170.185 c 36.616,0 66.42,-29.685 66.667,-66.426 h 0.244 l -38.911,-82.546 h -21.939 v 8.484 l 34.91,73.82 h -58.184 v -0.485 -17.454 -87.76 h 26.546 z m -448.494,11.516 c 48.16,0 87.396,39.235 87.396,87.395 0,48.16 -39.236,87.395 -87.396,87.395 -48.160003,0 -87.396003,-39.235 -87.396003,-87.395 0,-48.16 39.236,-87.395 87.396003,-87.395 z m -10.303,21.455 v 15.758 c -17.750003,3.351 -28.001003,14.623 -28.001003,29.454 0,16.075 12.069,24.408 29.819003,30.304 12.412,4.16 17.697,8.094 17.697,14.424 0,6.454 -6.501,10.303 -16.121,10.303 -10.799,0 -20.444003,-3.486 -27.395003,-7.272 l -4.969,19.395 c 6.329,3.474 16.951003,6.654 28.122003,7.151 v 15.757 h 16.484 v -17.09 c 19.054,-3.166 29.334,-15.775 29.334,-30.548 0.06,-15.142 -7.779,-24.139 -27.516,-31.151 -14.211,-5.15 -20,-8.844 -20,-14.182 0,-4.592 3.446,-9.456 14.182,-9.456 11.916,0 19.721,3.955 23.879,5.941 l 4.97,-18.788 c -5.834,-2.669 -13.319,-5.145 -24.242,-5.455 v -14.545 z m 440.13,19.15 h 15.152 v 15.153 h -15.152 z m 22.183,0 h 15.151 v 15.153 h -15.151 z m -22.183,22.063 h 15.152 v 15.272 h -15.152 z m 22.183,0 h 15.151 v 15.272 h -15.151 z m -22.304,79.88 h 37.455 v 27.88 17.454 0.485 h -37.455 v -0.485 -17.454 z"
       fill="#000000"
       id="path1173" />
  </g>
</g>
</svg>
