<?xml version="1.0" encoding="UTF-8" standalone="no"?>
<svg
   xmlns:dc="http://purl.org/dc/elements/1.1/"
   xmlns:cc="http://creativecommons.org/ns#"
   xmlns:rdf="http://www.w3.org/1999/02/22-rdf-syntax-ns#"
   xmlns:svg="http://www.w3.org/2000/svg"
   xmlns="http://www.w3.org/2000/svg"
   xmlns:sodipodi="http://sodipodi.sourceforge.net/DTD/sodipodi-0.dtd"
   xmlns:inkscape="http://www.inkscape.org/namespaces/inkscape"
   inkscape:version="1.0beta1 (32d4812, 2019-09-19)"
   sodipodi:docname="average_income.svg"
   height="33"
   width="39"
   id="svg843"
   xml:space="preserve"
   viewBox="0 0 39 33.000001"
   y="0px"
   x="0px"
   version="1.1"><sodipodi:namedview
   inkscape:current-layer="svg843"
   inkscape:window-maximized="1"
   inkscape:window-y="23"
   inkscape:window-x="0"
   inkscape:cy="27.86919"
   inkscape:cx="-36.996855"
   inkscape:zoom="2.4706087"
   fit-margin-bottom="0"
   fit-margin-right="0"
   fit-margin-left="0"
   fit-margin-top="0"
   inkscape:snap-global="false"
   showgrid="false"
   id="namedview843"
   inkscape:window-height="932"
   inkscape:window-width="1680"
   inkscape:pageshadow="2"
   inkscape:pageopacity="0"
   guidetolerance="10"
   gridtolerance="10"
   objecttolerance="10"
   borderopacity="1"
   inkscape:document-rotation="0"
   bordercolor="#666666"
   pagecolor="#ffffff" />

  <metadata
   id="metadata849">
    <rdf:RDF>
      <cc:Work
   rdf:about="">
        <dc:format>image/svg+xml</dc:format>


        <dc:type
   rdf:resource="http://purl.org/dc/dcmitype/StillImage" />


        <dc:title></dc:title>


      </cc:Work>


    </rdf:RDF>


  </metadata>


  <defs
   id="defs847">
    <style
   id="style833"
   type="text/css">
   
    .fil0 {fill:black}
   
  </style>


  </defs>


  

<g
   transform="translate(-70.475644,-10.33331)"
   id="g1011">
  <g
     style="fill:#c0c6c9;fill-opacity:1"
     transform="translate(65.975644,2.8333099)"
     id="g988">
    <path
       style="fill:#c0c6c9;fill-opacity:1"
       inkscape:connector-curvature="0"
       d="m 24,26.5 c 5.24,0 9.5,-4.26 9.5,-9.5 0,-5.24 -4.26,-9.5 -9.5,-9.5 -5.24,0 -9.5,4.26 -9.5,9.5 0,5.24 4.26,9.5 9.5,9.5 z m 0,-18 c 4.69,0 8.5,3.81 8.5,8.5 0,4.69 -3.81,8.5 -8.5,8.5 -4.69,0 -8.5,-3.81 -8.5,-8.5 0,-4.69 3.81,-8.5 8.5,-8.5 z"
       id="path976" />
    <path
       style="fill:#c0c6c9;fill-opacity:1"
       inkscape:connector-curvature="0"
       d="m 24.31,33.39 c -0.09,0.07 -0.2,0.11 -0.31,0.11 -0.11,0 -0.22,-0.04 -0.31,-0.11 L 19,29.64 5.43,40.5 H 42.57 L 29,29.64 Z"
       id="path978" />
    <polygon
       style="fill:#c0c6c9;fill-opacity:1"
       points="18.2,29 4.5,18.04 4.5,39.96 "
       id="polygon980" />
    <path
       style="fill:#c0c6c9;fill-opacity:1"
       inkscape:connector-curvature="0"
       d="M 42.57,17.5 H 40 34.47 c -0.26,5.56 -4.85,10 -10.47,10 -5.62,0 -10.21,-4.44 -10.47,-10 H 8 5.43 L 24,32.36 Z"
       id="path982" />
    <path
       style="fill:#c0c6c9;fill-opacity:1"
       inkscape:connector-curvature="0"
       d="m 24,24.5 c 4.14,0 7.5,-3.36 7.5,-7.5 0,-4.14 -3.36,-7.5 -7.5,-7.5 -4.14,0 -7.5,3.36 -7.5,7.5 0,4.14 3.36,7.5 7.5,7.5 z m 1,-7 h -2 c -1.38,0 -2.5,-1.12 -2.5,-2.5 0,-1.38 1.12,-2.5 2.5,-2.5 h 0.5 V 12 c 0,-0.28 0.22,-0.5 0.5,-0.5 0.28,0 0.5,0.22 0.5,0.5 v 0.5 H 27 c 0.28,0 0.5,0.22 0.5,0.5 0,0.28 -0.22,0.5 -0.5,0.5 h -4 c -0.83,0 -1.5,0.67 -1.5,1.5 0,0.83 0.67,1.5 1.5,1.5 h 2 c 1.38,0 2.5,1.12 2.5,2.5 0,1.38 -1.12,2.5 -2.5,2.5 H 24.5 V 22 c 0,0.28 -0.22,0.5 -0.5,0.5 -0.28,0 -0.5,-0.22 -0.5,-0.5 V 21.5 H 21 c -0.28,0 -0.5,-0.22 -0.5,-0.5 0,-0.28 0.22,-0.5 0.5,-0.5 h 4 c 0.83,0 1.5,-0.67 1.5,-1.5 0,-0.83 -0.67,-1.5 -1.5,-1.5 z"
       id="path984" />
    <polygon
       style="fill:#c0c6c9;fill-opacity:1"
       points="29.8,29 43.5,39.96 43.5,18.04 "
       id="polygon986" />
  </g>
</g>
</svg>
