<?xml version="1.0" encoding="UTF-8" standalone="no"?>
<svg
   xmlns:dc="http://purl.org/dc/elements/1.1/"
   xmlns:cc="http://creativecommons.org/ns#"
   xmlns:rdf="http://www.w3.org/1999/02/22-rdf-syntax-ns#"
   xmlns:svg="http://www.w3.org/2000/svg"
   xmlns="http://www.w3.org/2000/svg"
   xmlns:sodipodi="http://sodipodi.sourceforge.net/DTD/sodipodi-0.dtd"
   xmlns:inkscape="http://www.inkscape.org/namespaces/inkscape"
   inkscape:version="1.0beta1 (32d4812, 2019-09-19)"
   sodipodi:docname="million_earners.svg"
   height="35.840931"
   width="33.3689"
   id="svg843"
   xml:space="preserve"
   viewBox="0 0 33.3689 35.840932"
   y="0px"
   x="0px"
   version="1.1"><sodipodi:namedview
   inkscape:current-layer="svg843"
   inkscape:window-maximized="1"
   inkscape:window-y="23"
   inkscape:window-x="0"
   inkscape:cy="30.015344"
   inkscape:cx="-40.352065"
   inkscape:zoom="2.4706087"
   fit-margin-bottom="0"
   fit-margin-right="0"
   fit-margin-left="0"
   fit-margin-top="0"
   inkscape:snap-global="false"
   showgrid="false"
   id="namedview843"
   inkscape:window-height="932"
   inkscape:window-width="1680"
   inkscape:pageshadow="2"
   inkscape:pageopacity="0"
   guidetolerance="10"
   gridtolerance="10"
   objecttolerance="10"
   borderopacity="1"
   inkscape:document-rotation="0"
   bordercolor="#666666"
   pagecolor="#ffffff" />

  <metadata
   id="metadata849">
    <rdf:RDF>
      <cc:Work
   rdf:about="">
        <dc:format>image/svg+xml</dc:format>


        <dc:type
   rdf:resource="http://purl.org/dc/dcmitype/StillImage" />


        <dc:title></dc:title>


      </cc:Work>


    </rdf:RDF>


  </metadata>


  <defs
   id="defs847">
    <style
   id="style833"
   type="text/css">
   
    .fil0 {fill:black}
   
  </style>


  </defs>


  

<g
   transform="translate(-160.69009,-109.68875)"
   id="g1060">
  <g
     style="fill:#c0c6c9;fill-opacity:1"
     transform="matrix(0.13864707,0,0,0.13864707,160.68996,109.68886)"
     id="g1039">
    <path
       style="fill:#c0c6c9;fill-opacity:1"
       inkscape:connector-curvature="0"
       d="m 104.614,247.743 11.954,-91.381 h 6.407 l 11.954,91.381 c 0.886,6.772 7.094,11.541 13.864,10.655 6.769,-0.885 11.541,-7.09 10.655,-13.863 l -12.631,-96.55 V 88.126 L 159.04,75.903 c -0.199,-6.252 0.33,-12.4 2.437,-16.485 4.61,-8.942 11.468,-14.433 17.518,-19.277 1.523,-1.22 2.962,-2.371 4.339,-3.552 2.183,-1.871 4.379,-3.277 6.317,-4.517 5.002,-3.202 5.96,-4.15 4.729,-6.919 -0.496,-1.117 -1.759,-2.44 -3.38,-3.837 l -51.229,51.229 c -0.225,-0.02 -0.451,-0.034 -0.681,-0.034 H 102.678 L 51.173,21.007 c -1.495,1.313 -2.767,2.602 -3.396,3.786 -0.558,1.051 -1.597,3.007 -1.436,3.532 0.188,0.608 1.762,1.894 3.584,3.384 l 0.428,0.349 c 1.323,1.083 3.295,2.189 5.578,3.471 6.801,3.818 16.116,9.046 23.495,21.26 3.46,5.727 4.232,12.437 3.735,18.832 l 9.566,9.566 v 62.783 l -12.633,96.565 c -0.886,6.772 3.887,12.977 10.655,13.863 6.771,0.886 12.979,-3.882 13.865,-10.655 z m 15.158,-102.547 -9.5,-12 5.472,-40.321 c 1.297,0.486 2.662,0.74 4.027,0.739 h 0.002 c 0,0 0.004,0 0.006,0 1.363,0 2.725,-0.254 4.021,-0.74 l 5.473,40.322 z m -3.801,-64.5 h 3.801 3.799 l 1.9,7.5 -0.289,0.456 c -1.566,1.306 -3.484,1.96 -5.413,1.962 -1.928,-0.002 -3.843,-0.655 -5.408,-1.958 l -0.291,-0.46 z"
       id="path1031" />
    <path
       style="fill:#c0c6c9;fill-opacity:1"
       inkscape:connector-curvature="0"
       d="m 97.272,44.314 c 0,12.427 10.074,22.5 22.5,22.5 12.428,0 22.5,-10.073 22.5,-22.5 0,-12.427 -10.072,-22.5 -22.5,-22.5 -12.426,0 -22.5,10.073 -22.5,22.5 z m 12.917,11.669 c 0,0 14.011,1.669 22.265,-4.407 0,10e-4 -7.62,19.085 -22.265,4.407 z"
       id="path1033" />
    <path
       style="fill:#c0c6c9;fill-opacity:1"
       inkscape:connector-curvature="0"
       d="M 77.542,57.927 C 67.875,41.927 54.459,38.26 48.959,33.76 c -5.5,-4.5 -5.958,-4.667 -3.125,-10 2.833,-5.333 14.167,-10.583 14.5,-16 0.333,-5.417 -25.625,-12.25 -20.875,-3.75 4.75,8.5 -18.875,-4.75 -22.625,-0.25 -3.75,4.5 17,13.75 20,20.5 3,6.75 -4.625,8 -11.625,14 -7,6 -15.833,11.501 -21.333,22.167 -4.784,9.277 -0.617,31.028 0.55,36.539 l -3.324,3.973 c -1.676,2.004 -1.408,5.015 0.595,6.691 2.004,1.676 5.015,1.408 6.691,-0.595 l 3.181,-3.802 c 5.935,3.318 15.833,6.995 30.14,6.528 13.188,-0.431 21.418,-3.358 26.301,-6.084 l 3.437,4.109 c 1.677,2.004 4.688,2.272 6.691,0.595 2.004,-1.676 2.272,-4.687 0.595,-6.691 l -3.764,-4.5 C 77.602,91.503 85.76,71.528 77.542,57.927 Z M 42.69,87.739 v 3.739 H 38.962 V 87.739 C 34.952,87.394 31.294,85.771 28.41,83.065 l 4.854,-3.197 c 3.024,2.607 4.924,3.443 7.878,3.443 3.025,0 4.925,-1.525 4.925,-3.936 0,-1.328 -0.704,-2.607 -1.899,-3.591 -1.196,-0.935 -1.899,-1.329 -6.05,-3.395 -6.894,-3.444 -9.074,-5.805 -9.074,-9.79 0,-4.525 3.869,-7.871 9.919,-8.51 v -3.05 h 3.728 v 3.05 c 3.658,0.295 6.753,1.476 9.496,3.64 l -4.854,3.345 c -1.899,-1.82 -3.798,-2.558 -6.331,-2.558 -3.165,0 -5.135,1.427 -5.135,3.739 0,1.279 0.633,2.46 1.829,3.345 1.055,0.787 1.548,1.033 5.557,2.952 7.527,3.69 9.849,6.199 9.849,10.577 0,4.872 -3.799,8.02 -10.412,8.61 z"
       id="path1035" />
    <path
       style="fill:#c0c6c9;fill-opacity:1"
       inkscape:connector-curvature="0"
       d="m 196.392,24.261 c 3,6.75 -4.625,8 -11.625,14 -7,6 -15.833,11.5 -21.333,22.167 -4.784,9.277 -0.617,31.028 0.55,36.539 l -3.324,3.973 c -1.676,2.004 -1.408,5.015 0.595,6.691 2.004,1.676 5.015,1.408 6.691,-0.595 l 3.181,-3.802 c 5.935,3.318 15.833,6.995 30.14,6.528 13.188,-0.431 21.418,-3.358 26.301,-6.084 l 3.437,4.109 c 1.677,2.004 4.688,2.272 6.691,0.595 2.004,-1.676 2.272,-4.687 0.595,-6.691 l -3.764,-4.5 c 2.632,-5.687 10.791,-25.661 2.573,-39.263 -9.667,-16 -23.083,-19.667 -28.583,-24.167 -5.5,-4.5 -5.958,-4.667 -3.125,-10 2.833,-5.333 14.167,-10.583 14.5,-16 0.333,-5.417 -25.625,-12.25 -20.875,-3.75 4.75,8.5 -18.875,-4.75 -22.625,-0.25 -3.75,4.5 17,13.75 20,20.5 z m 15.352,33.469 -4.854,3.345 c -1.899,-1.82 -3.798,-2.558 -6.331,-2.558 -3.165,0 -5.135,1.427 -5.135,3.739 0,1.279 0.633,2.46 1.829,3.345 1.055,0.787 1.548,1.033 5.557,2.952 7.527,3.69 9.849,6.199 9.849,10.577 0,4.871 -3.799,8.019 -10.411,8.609 v 3.739 h -3.728 v -3.739 c -4.01,-0.345 -7.668,-1.968 -10.552,-4.674 l 4.854,-3.197 c 3.024,2.607 4.924,3.443 7.878,3.443 3.025,0 4.925,-1.525 4.925,-3.936 0,-1.328 -0.704,-2.607 -1.899,-3.591 -1.196,-0.935 -1.899,-1.329 -6.05,-3.395 -6.894,-3.444 -9.074,-5.805 -9.074,-9.79 0,-4.525 3.869,-7.871 9.919,-8.51 v -3.05 h 3.728 v 3.05 c 3.658,0.296 6.752,1.477 9.495,3.641 z"
       id="path1037" />
  </g>
</g>
</svg>
