<?xml version="1.0" encoding="UTF-8" standalone="no"?>
<svg
   xmlns:dc="http://purl.org/dc/elements/1.1/"
   xmlns:cc="http://creativecommons.org/ns#"
   xmlns:rdf="http://www.w3.org/1999/02/22-rdf-syntax-ns#"
   xmlns:svg="http://www.w3.org/2000/svg"
   xmlns="http://www.w3.org/2000/svg"
   xmlns:sodipodi="http://sodipodi.sourceforge.net/DTD/sodipodi-0.dtd"
   xmlns:inkscape="http://www.inkscape.org/namespaces/inkscape"
   inkscape:version="1.0beta1 (32d4812, 2019-09-19)"
   sodipodi:docname="moving_in.svg"
   height="35.349178"
   width="24.150476"
   id="svg843"
   xml:space="preserve"
   viewBox="0 0 24.150476 35.349179"
   y="0px"
   x="0px"
   version="1.1"><sodipodi:namedview
   inkscape:current-layer="svg843"
   inkscape:window-maximized="1"
   inkscape:window-y="23"
   inkscape:window-x="0"
   inkscape:cy="36.458864"
   inkscape:cx="-32.287948"
   inkscape:zoom="5.5695991"
   fit-margin-bottom="0"
   fit-margin-right="0"
   fit-margin-left="0"
   fit-margin-top="0"
   inkscape:snap-global="false"
   showgrid="false"
   id="namedview843"
   inkscape:window-height="932"
   inkscape:window-width="1680"
   inkscape:pageshadow="2"
   inkscape:pageopacity="0"
   guidetolerance="10"
   gridtolerance="10"
   objecttolerance="10"
   borderopacity="1"
   inkscape:document-rotation="0"
   bordercolor="#666666"
   pagecolor="#ffffff" />

  <metadata
   id="metadata849">
    <rdf:RDF>
      <cc:Work
   rdf:about="">
        <dc:format>image/svg+xml</dc:format>


        <dc:type
   rdf:resource="http://purl.org/dc/dcmitype/StillImage" />


        <dc:title></dc:title>


      </cc:Work>


    </rdf:RDF>


  </metadata>


  <defs
   id="defs847">
    <style
   id="style833"
   type="text/css">
   
    .fil0 {fill:black}
   
  </style>


  </defs>


  

<g
   style="fill:#c0c6c9;fill-opacity:1"
   transform="matrix(0.35429959,0,0,0.35429959,-5.8083875,-0.08078031)"
   id="g1263">
  <path
     style="fill:#c0c6c9;fill-opacity:1"
     inkscape:connector-curvature="0"
     d="m 80.924,34.087 c 0,1.822 -1.478,3.3 -3.304,3.3 H 59.005 c -1.822,0 -3.3,-1.478 -3.3,-3.3 v -7.153 c 0,-1.825 1.478,-3.302 3.3,-3.302 H 77.62 c 1.826,0 3.304,1.478 3.304,3.302 z"
     id="path1213" />
  <path
     style="fill:#c0c6c9;fill-opacity:1"
     inkscape:connector-curvature="0"
     d="m 53.604,11.448 c 0,1.823 -1.478,3.3 -3.302,3.3 H 31.688 c -1.822,0 -3.3,-1.478 -3.3,-3.3 V 9.59 c 0,-1.822 1.478,-3.3 3.3,-3.3 h 18.615 c 1.824,0 3.302,1.478 3.302,3.3 v 1.858 z"
     id="path1215" />
  <g
     style="fill:#c0c6c9;fill-opacity:1"
     id="g1225">
    <polygon
       style="fill:#c0c6c9;fill-opacity:1"
       points="22.558,25.853 39.198,25.853 37.072,16.947 22.558,16.947 "
       id="polygon1217" />
    <polygon
       style="fill:#c0c6c9;fill-opacity:1"
       points="38.839,16.947 40.966,25.853 53.506,25.853 53.506,16.947 "
       id="polygon1219" />
    <polygon
       style="fill:#c0c6c9;fill-opacity:1"
       points="41.906,37.194 39.608,27.572 22.558,27.572 22.558,37.194 "
       id="polygon1221" />
    <polygon
       style="fill:#c0c6c9;fill-opacity:1"
       points="53.506,27.572 41.377,27.572 43.674,37.194 53.506,37.194 "
       id="polygon1223" />
  </g>
  <g
     style="fill:#c0c6c9;fill-opacity:1"
     id="g1231">
    <polygon
       style="fill:#c0c6c9;fill-opacity:1"
       points="74.808,7.822 55.705,16.159 55.705,21.913 74.808,21.913 "
       id="polygon1227" />
    <polygon
       style="fill:#c0c6c9;fill-opacity:1"
       points="55.705,14.283 74.808,5.943 74.808,0.228 55.705,0.228 "
       id="polygon1229" />
  </g>
  <path
     style="fill:#c0c6c9;fill-opacity:1"
     inkscape:connector-curvature="0"
     d="m 59.627,46.713 c -2.552,0 -4.627,2.078 -4.627,4.627 0,2.552 2.075,4.632 4.627,4.632 2.548,0 4.63,-2.08 4.63,-4.632 0,-2.549 -2.082,-4.627 -4.63,-4.627 z"
     id="path1233" />
  <path
     style="fill:#c0c6c9;fill-opacity:1"
     inkscape:connector-curvature="0"
     d="M 84.558,64.818 75.825,59.53 74.948,46.353 c -0.301,-3.569 -3.282,-6.376 -6.923,-6.376 v -0.002 h -35.1 c -3.631,0 -6.618,2.805 -6.916,6.376 l -0.873,13.178 -8.742,5.287 0.02,22.242 h 3.9 l -0.004,7.278 c 0,3.125 2.523,5.664 5.651,5.664 3.125,0 5.657,-2.536 5.657,-5.662 L 31.611,87.06 h 37.736 l -0.007,7.278 c 0,3.128 2.532,5.662 5.65,5.662 3.126,0 5.655,-2.536 5.655,-5.662 L 80.643,87.06 H 84.54 Z M 25.822,77.236 c -2.619,0 -4.737,-2.125 -4.737,-4.755 0,-2.602 2.115,-4.735 4.737,-4.735 2.615,0 4.74,2.132 4.74,4.735 0,2.63 -2.125,4.755 -4.74,4.755 z m 11.59,1.812 0.006,-8.53 c 0,-1.178 0.956,-2.143 2.131,-2.143 L 62.107,68.34 c 1.178,0 2.136,0.965 2.136,2.14 l 0.007,8.532 z m 30.61,-18.544 c -0.269,-2.028 -1.986,-3.598 -4.086,-3.598 h -8.64 c -2.098,0 -3.814,1.569 -4.084,3.598 H 47.774 V 48.276 h -12.99 v 12.228 h -4.661 l 0.849,-13.887 c 0.154,-1.852 1.704,-1.82 3.593,-1.82 h 31.842 c 1.89,0 3.438,-0.031 3.6,1.82 l 0.847,13.887 z m 7.115,16.732 c -2.617,0 -4.739,-2.125 -4.739,-4.755 0,-2.602 2.122,-4.735 4.739,-4.735 2.613,0 4.733,2.132 4.733,4.735 0,2.63 -2.12,4.755 -4.733,4.755 z"
     id="path1235" />
</g>
</svg>
