<?xml version="1.0" encoding="UTF-8" standalone="no"?>
<svg
   xmlns:dc="http://purl.org/dc/elements/1.1/"
   xmlns:cc="http://creativecommons.org/ns#"
   xmlns:rdf="http://www.w3.org/1999/02/22-rdf-syntax-ns#"
   xmlns:svg="http://www.w3.org/2000/svg"
   xmlns="http://www.w3.org/2000/svg"
   xmlns:sodipodi="http://sodipodi.sourceforge.net/DTD/sodipodi-0.dtd"
   xmlns:inkscape="http://www.inkscape.org/namespaces/inkscape"
   sodipodi:docname="net_investment_icon.svg"
   inkscape:version="1.0beta1 (32d4812, 2019-09-19)"
   id="svg8"
   version="1.1"
   viewBox="0 0 15.468821 24.949711"
   height="24.949711mm"
   width="15.468821mm">
  <defs
     id="defs2" />
  <sodipodi:namedview
     inkscape:window-maximized="1"
     inkscape:window-y="23"
     inkscape:window-x="0"
     inkscape:window-height="932"
     inkscape:window-width="1680"
     fit-margin-bottom="0"
     fit-margin-right="0"
     fit-margin-left="0"
     fit-margin-top="0"
     showgrid="false"
     inkscape:document-rotation="0"
     inkscape:current-layer="layer1"
     inkscape:document-units="mm"
     inkscape:cy="-27.614339"
     inkscape:cx="41.226507"
     inkscape:zoom="2.3702396"
     inkscape:pageshadow="2"
     inkscape:pageopacity="0.0"
     borderopacity="1.0"
     bordercolor="#666666"
     pagecolor="#ffffff"
     id="base" />
  <metadata
     id="metadata5">
    <rdf:RDF>
      <cc:Work
         rdf:about="">
        <dc:format>image/svg+xml</dc:format>
        <dc:type
           rdf:resource="http://purl.org/dc/dcmitype/StillImage" />
        <dc:title></dc:title>
      </cc:Work>
    </rdf:RDF>
  </metadata>
  <g
     transform="translate(16.141462,-271.02506)"
     id="layer1"
     inkscape:groupmode="layer"
     inkscape:label="Lager 1">
    <g
       style="fill:#c0c6c9;fill-opacity:1"
       transform="matrix(0.04989942,0,0,0.04989942,-18.137439,263.68985)"
       id="g241">
      <g
         style="fill:#c0c6c9;fill-opacity:1"
         id="g218">
        <path
           style="fill:#c0c6c9;fill-opacity:1"
           inkscape:connector-curvature="0"
           d="m 155.9,450 c 0,15.5 11.8,28.3 26.8,29.9 v -59.7 c -15,1.5 -26.8,14.3 -26.8,29.8 z"
           id="path206" />
        <path
           style="fill:#c0c6c9;fill-opacity:1"
           inkscape:connector-curvature="0"
           d="m 207.3,504.8 v 59.7 c 15.1,-1.6 26.8,-14.4 26.8,-29.9 0,-15.4 -11.8,-28.2 -26.8,-29.8 z"
           id="path208" />
        <path
           style="fill:#c0c6c9;fill-opacity:1"
           inkscape:connector-curvature="0"
           d="M 195,337.7 C 109.5,337.7 40,407.1 40,492.4 40,577.7 109.5,647 195,647 280.5,647 350,577.6 350,492.3 350,407 280.5,337.7 195,337.7 Z m 12.3,251.5 v 18.9 h -24.5 v -18.8 h -39.1 v -24.6 h 39.1 V 504.6 C 154.2,503 131.4,479.1 131.4,450 c 0,-29.1 22.8,-52.9 51.4,-54.6 v -18.9 h 24.5 v 18.8 h 39.1 V 420 h -39.1 v 60.1 c 28.6,1.6 51.4,25.5 51.4,54.6 -0.1,29.1 -22.8,52.9 -51.4,54.5 z"
           id="path210" />
        <path
           style="fill:#c0c6c9;fill-opacity:1"
           inkscape:connector-curvature="0"
           d="m 267.6,147 v 185.7 c 35.2,16 64.2,43.3 82.4,77.3 V 147 Z"
           id="path212" />
        <path
           style="fill:#c0c6c9;fill-opacity:1"
           inkscape:connector-curvature="0"
           d="M 122.4,332.7 V 279.6 H 40 V 410 c 18.2,-33.9 47.2,-61.2 82.4,-77.3 z"
           id="path214" />
        <path
           style="fill:#c0c6c9;fill-opacity:1"
           inkscape:connector-curvature="0"
           d="M 236.2,321.9 V 209.6 H 153.8 V 322 c 13.2,-3.2 27,-4.9 41.2,-4.9 14.2,0 28,1.6 41.2,4.8 z"
           id="path216" />
      </g>
    </g>
  </g>
</svg>
