<?xml version="1.0" encoding="UTF-8" standalone="no"?>
<svg
   xmlns:dc="http://purl.org/dc/elements/1.1/"
   xmlns:cc="http://creativecommons.org/ns#"
   xmlns:rdf="http://www.w3.org/1999/02/22-rdf-syntax-ns#"
   xmlns:svg="http://www.w3.org/2000/svg"
   xmlns="http://www.w3.org/2000/svg"
   xmlns:sodipodi="http://sodipodi.sourceforge.net/DTD/sodipodi-0.dtd"
   xmlns:inkscape="http://www.inkscape.org/namespaces/inkscape"
   inkscape:version="1.0beta1 (32d4812, 2019-09-19)"
   sodipodi:docname="newborns.svg"
   height="34.764122"
   width="34.914261"
   id="svg843"
   xml:space="preserve"
   viewBox="0 0 34.914261 34.764123"
   y="0px"
   x="0px"
   version="1.1"><sodipodi:namedview
   inkscape:current-layer="svg843"
   inkscape:window-maximized="1"
   inkscape:window-y="23"
   inkscape:window-x="0"
   inkscape:cy="28.174031"
   inkscape:cx="-38.938771"
   inkscape:zoom="2.4706087"
   fit-margin-bottom="0"
   fit-margin-right="0"
   fit-margin-left="0"
   fit-margin-top="0"
   inkscape:snap-global="false"
   showgrid="false"
   id="namedview843"
   inkscape:window-height="932"
   inkscape:window-width="1680"
   inkscape:pageshadow="2"
   inkscape:pageopacity="0"
   guidetolerance="10"
   gridtolerance="10"
   objecttolerance="10"
   borderopacity="1"
   inkscape:document-rotation="0"
   bordercolor="#666666"
   pagecolor="#ffffff" />

  <metadata
   id="metadata849">
    <rdf:RDF>
      <cc:Work
   rdf:about="">
        <dc:format>image/svg+xml</dc:format>


        <dc:type
   rdf:resource="http://purl.org/dc/dcmitype/StillImage" />


        <dc:title></dc:title>


      </cc:Work>


    </rdf:RDF>


  </metadata>


  <defs
   id="defs847">
    <style
   id="style833"
   type="text/css">
   
    .fil0 {fill:black}
   
  </style>


  </defs>


  

<g
   transform="translate(-33.021463,-27.464571)"
   id="g956">
  <g
     style="fill:#c0c6c9;fill-opacity:1"
     transform="matrix(0.48952111,0,0,0.48952111,25.971101,20.360495)"
     id="g933">
    <path
       style="fill:#c0c6c9;fill-opacity:1"
       inkscape:connector-curvature="0"
       d="m 43.315,59.678 c -0.827,-0.734 -1.687,-1.466 -2.679,-2.159 -0.349,-0.247 -0.545,-0.42 -0.614,-0.489 -2.989,-3.044 -0.019,-8.708 4.247,-12.975 l 0.177,-0.175 c 2.696,-2.66 6.751,-5.496 10.06,-5.471 1.616,0.011 2.617,0.686 3.175,1.252 0.054,0.057 0.232,0.26 0.475,0.622 0.663,0.979 1.365,1.826 2.072,2.646 6.203,-7.977 9.122,-14.952 6.736,-17.38 C 63.698,22.237 51.74,28.702 40.266,39.991 28.79,51.293 22.144,63.14 25.401,66.463 c 2.435,2.466 9.655,-0.476 17.914,-6.785 z"
       id="path921" />
    <g
       style="fill:#c0c6c9;fill-opacity:1"
       id="g927">
      <path
         style="fill:#c0c6c9;fill-opacity:1"
         inkscape:connector-curvature="0"
         d="m 31.258,31.348 c -0.632,0.624 -1.145,1.317 -1.601,2.035 0.308,-0.123 0.614,-0.251 0.904,-0.421 1.936,-1.133 4.438,-0.49 5.583,1.44 0.939,1.609 0.678,3.638 -0.631,4.945 -0.246,0.247 -0.522,0.464 -0.826,0.637 -1.983,1.174 -4.181,1.778 -6.422,1.921 0.403,1.703 1.161,3.341 2.374,4.742 2.157,-2.702 4.685,-5.524 7.507,-8.296 2.817,-2.781 5.673,-5.268 8.422,-7.375 -4.381,-3.904 -11.077,-3.793 -15.31,0.372 z"
         id="path923" />
      <path
         style="fill:#c0c6c9;fill-opacity:1"
         inkscape:connector-curvature="0"
         d="m 24.067,39.914 c 3.34,0.867 6.818,0.382 9.78,-1.369 1.15,-0.668 1.531,-2.148 0.862,-3.294 -0.679,-1.145 -2.153,-1.524 -3.3,-0.851 -1.863,1.098 -4.039,1.404 -6.128,0.863 -2.097,-0.549 -3.854,-1.874 -4.948,-3.737 -2.263,-3.844 -0.982,-8.823 2.871,-11.083 1.862,-1.098 4.043,-1.402 6.126,-0.859 1.508,0.39 2.826,1.197 3.865,2.305 0.175,0.187 0.323,0.39 0.476,0.589 0.162,0.209 0.329,0.417 0.473,0.646 0.754,1.213 1.162,2.578 1.22,3.962 1.55,-0.467 3.156,-0.639 4.759,-0.515 C 40,24.714 39.45,22.895 38.546,21.218 38.502,21.106 38.492,20.987 38.429,20.88 38.353,20.75 38.246,20.643 38.165,20.518 37.951,20.178 37.701,19.856 37.451,19.535 37.201,19.21 36.956,18.88 36.677,18.582 36.613,18.514 36.57,18.437 36.503,18.371 l -0.027,0.026 c -1.623,-1.654 -3.639,-2.871 -5.932,-3.466 -3.332,-0.867 -6.811,-0.377 -9.78,1.372 -0.938,0.551 -1.774,1.197 -2.513,1.922 -4.116,4.051 -5.128,10.545 -2.071,15.749 1.75,2.964 4.545,5.08 7.887,5.94 z"
         id="path925" />
    </g>
    <g
       style="fill:#c0c6c9;fill-opacity:1"
       id="g931">
      <path
         style="fill:#c0c6c9;fill-opacity:1"
         inkscape:connector-curvature="0"
         d="M 80.69,80.472 C 80.657,80.505 80.622,80.54 80.586,80.576 73.804,87.253 62.897,87.168 56.217,80.388 52.931,77.047 51.284,72.7 51.279,68.352 51.273,68.341 51.273,68.327 51.273,68.323 50.365,60.609 42.05,55.521 41.806,55.277 c -1.433,-1.462 0.457,-5.676 4.232,-9.453 0.054,-0.054 0.109,-0.109 0.166,-0.164 3.884,-3.835 8.233,-5.728 9.69,-4.247 0.241,0.244 5.193,8.64 12.892,9.664 0.013,0.003 0.021,0.006 0.03,0.006 4.35,0.09 8.668,1.789 11.96,5.134 6.637,6.747 6.591,17.579 -0.086,24.255 m -21.549,-5.14 c -0.62,0.62 -0.615,1.624 -0.002,2.25 5.098,5.178 13.462,5.242 18.644,0.147 0.002,-0.002 0.004,-0.004 0.007,-0.007 0.623,-0.624 0.628,-1.638 0.006,-2.262 -0.617,-0.633 -1.639,-0.645 -2.271,-0.019 -3.915,3.852 -10.245,3.813 -14.1,-0.115 -0.619,-0.628 -1.634,-0.635 -2.269,-0.01 -0.004,0.005 -0.011,0.011 -0.015,0.016"
         id="path929" />
    </g>
  </g>
</g>
</svg>
