<?xml version="1.0" encoding="UTF-8" standalone="no"?>
<svg
   xmlns:dc="http://purl.org/dc/elements/1.1/"
   xmlns:cc="http://creativecommons.org/ns#"
   xmlns:rdf="http://www.w3.org/1999/02/22-rdf-syntax-ns#"
   xmlns:svg="http://www.w3.org/2000/svg"
   xmlns="http://www.w3.org/2000/svg"
   xmlns:sodipodi="http://sodipodi.sourceforge.net/DTD/sodipodi-0.dtd"
   xmlns:inkscape="http://www.inkscape.org/namespaces/inkscape"
   sodipodi:docname="pension_obligation_icon.svg"
   inkscape:version="1.0beta1 (32d4812, 2019-09-19)"
   id="svg8"
   version="1.1"
   viewBox="0 0 18.12896 25.135416"
   height="25.135416mm"
   width="18.12896mm">
  <defs
     id="defs2" />
  <sodipodi:namedview
     inkscape:window-maximized="1"
     inkscape:window-y="23"
     inkscape:window-x="0"
     inkscape:window-height="932"
     inkscape:window-width="1680"
     fit-margin-bottom="0"
     fit-margin-right="0"
     fit-margin-left="0"
     fit-margin-top="0"
     showgrid="false"
     inkscape:document-rotation="0"
     inkscape:current-layer="layer1"
     inkscape:document-units="mm"
     inkscape:cy="1.27779"
     inkscape:cx="-107.53036"
     inkscape:zoom="1.2450291"
     inkscape:pageshadow="2"
     inkscape:pageopacity="0.0"
     borderopacity="1.0"
     bordercolor="#666666"
     pagecolor="#ffffff"
     id="base" />
  <metadata
     id="metadata5">
    <rdf:RDF>
      <cc:Work
         rdf:about="">
        <dc:format>image/svg+xml</dc:format>
        <dc:type
           rdf:resource="http://purl.org/dc/dcmitype/StillImage" />
        <dc:title></dc:title>
      </cc:Work>
    </rdf:RDF>
  </metadata>
  <g
     transform="translate(-4.0745634,-270.80629)"
     id="layer1"
     inkscape:groupmode="layer"
     inkscape:label="Lager 1">
    <g
       style="fill:#c0c6c9;fill-opacity:1"
       transform="matrix(0.26458333,0,0,0.26458333,-565.39036,-163.44266)"
       id="g165">
      <g
         transform="translate(2136.5179,1638.7559)"
         id="g133"
         style="opacity:1;fill:#c0c6c9;fill-opacity:1;stop-opacity:1">
        <path
           style="fill:#c0c6c9;fill-opacity:1"
           inkscape:connector-curvature="0"
           d="m 60,53.8 -1.1,-0.3 v 42.2 c 0,1 0.8,1.8 1.8,1.8 1,0 1.8,-0.8 1.8,-1.8 V 54.1 c -0.2,0 -0.4,0 -0.6,0 -0.6,0 -1.2,-0.1 -1.9,-0.3 z"
           id="path125" />
        <path
           style="fill:#c0c6c9;fill-opacity:1"
           inkscape:connector-curvature="0"
           d="m 63.2,42.7 -10,-2.9 c 0,0 -5.8,-11.7 -6.4,-12.9 -0.6,-1.1 -1.2,-2.1 -2.1,-2.9 -1.7,-1.6 -3.9,-2.5 -6.3,-2.4 -2.3,0.1 -4.5,1.3 -5.9,3.1 -0.2,0.3 -0.4,0.6 -0.6,0.9 l -3.6,7.1 c -2.2,3.4 -7.3,11.4 -9.4,16.7 -2,4.9 -2.8,10.6 -3.1,13.4 -0.1,1 0.6,1.9 1.6,2.1 2.1,0.3 6,0.8 10.4,0.9 L 29.3,69.5 28,92 c -0.2,2.9 2,5.3 4.9,5.5 0.1,0 0.2,0 0.3,0 2.7,0 5,-2.1 5.2,-4.9 l 1.4,-23.7 c 0,-0.8 -0.1,-1.6 -0.4,-2.3 L 38.8,65.2 C 40.6,64.9 42.3,64.5 43.9,64 45,63.6 45.6,62.4 45,61.3 40,51.4 38.8,48.8 43.3,39.6 l 2.9,5.8 c 0.5,1.1 1.5,1.9 2.7,2.3 l 11.9,3.4 c 0.4,0.1 0.8,0.2 1.2,0.2 1.9,0 3.7,-1.2 4.2,-3.2 0.7,-2.3 -0.7,-4.7 -3,-5.4 z"
           id="path127" />
        <path
           style="fill:#c0c6c9;fill-opacity:1"
           inkscape:connector-curvature="0"
           d="m 43.2,10.3 c -0.5,1.1 -0.7,2.3 -0.7,3.6 0,5 4.1,9.1 9.1,9.1 5,0 9.1,-4.1 9.1,-9.1 0,-5 -4.1,-9.1 -9.1,-9.1 C 50.3,4.8 49.1,5.1 48,5.5 48,4.7 47.7,4 47.1,3.4 45.9,2.2 44,2.2 42.8,3.4 L 41,5.2 c -1.2,1.2 -1.2,3.1 0,4.3 0.6,0.5 1.4,0.8 2.2,0.8 z"
           id="path129" />
        <path
           style="fill:#c0c6c9;fill-opacity:1"
           inkscape:connector-curvature="0"
           d="m 82.3,26.9 c -1.4,-1.6 -3.4,-2.5 -5.5,-2.5 h -2.3 c -0.8,0 -1.5,-0.3 -2,-0.9 C 72,22.9 71.7,22.2 71.8,21.4 71.9,20 73.2,19 74.7,19 h 2.7 c 0.8,0 1.6,0.6 1.8,1.4 0.1,0.4 0.4,0.7 0.8,0.7 h 3 c 0.2,0 0.5,-0.1 0.7,-0.3 0.2,-0.2 0.2,-0.4 0.2,-0.6 -0.3,-3 -2.6,-5.4 -5.7,-5.8 H 78 v -2.8 c 0,-0.5 -0.4,-0.9 -0.9,-0.9 h -3 c -0.5,0 -0.9,0.4 -0.9,0.9 v 2.8 H 73 c -3.8,0.7 -6.4,4.2 -6,8.1 0.4,3.8 3.8,6.7 7.8,6.7 h 2 c 0.8,0 1.5,0.3 2,0.9 0.5,0.6 0.8,1.3 0.7,2.1 -0.1,1.4 -1.4,2.4 -2.9,2.4 H 73.9 C 73.1,34.6 72.3,34 72.1,33.2 72,32.8 71.7,32.5 71.3,32.5 h -3 c -0.3,0 -0.5,0.1 -0.7,0.3 -0.2,0.2 -0.2,0.4 -0.2,0.6 0.3,3 2.6,5.4 5.7,5.8 h 0.2 V 42 c 0,0.5 0.4,0.9 0.9,0.9 h 3 c 0.5,0 0.9,-0.4 0.9,-0.9 v -2.9 h 0.2 c 3.3,-0.7 5.7,-3.3 6,-6.5 0.1,-2 -0.6,-4.1 -2,-5.7 z"
           id="path131" />
      </g>
    </g>
  </g>
</svg>
