<?xml version="1.0" encoding="UTF-8" standalone="no"?>
<svg
   xmlns:dc="http://purl.org/dc/elements/1.1/"
   xmlns:cc="http://creativecommons.org/ns#"
   xmlns:rdf="http://www.w3.org/1999/02/22-rdf-syntax-ns#"
   xmlns:svg="http://www.w3.org/2000/svg"
   xmlns="http://www.w3.org/2000/svg"
   xmlns:sodipodi="http://sodipodi.sourceforge.net/DTD/sodipodi-0.dtd"
   xmlns:inkscape="http://www.inkscape.org/namespaces/inkscape"
   sodipodi:docname="sick_leave_icon.svg"
   inkscape:version="1.0beta1 (32d4812, 2019-09-19)"
   id="svg8"
   version="1.1"
   viewBox="0 0 25.098337 25.098345"
   height="25.098345mm"
   width="25.098337mm">
  <defs
     id="defs2" />
  <sodipodi:namedview
     inkscape:window-maximized="1"
     inkscape:window-y="23"
     inkscape:window-x="0"
     inkscape:window-height="932"
     inkscape:window-width="1680"
     fit-margin-bottom="0"
     fit-margin-right="0"
     fit-margin-left="0"
     fit-margin-top="0"
     showgrid="false"
     inkscape:document-rotation="0"
     inkscape:current-layer="layer1"
     inkscape:document-units="mm"
     inkscape:cy="-32.06804"
     inkscape:cx="53.84454"
     inkscape:zoom="2.3702396"
     inkscape:pageshadow="2"
     inkscape:pageopacity="0.0"
     borderopacity="1.0"
     bordercolor="#666666"
     pagecolor="#ffffff"
     id="base" />
  <metadata
     id="metadata5">
    <rdf:RDF>
      <cc:Work
         rdf:about="">
        <dc:format>image/svg+xml</dc:format>
        <dc:type
           rdf:resource="http://purl.org/dc/dcmitype/StillImage" />
        <dc:title></dc:title>
      </cc:Work>
    </rdf:RDF>
  </metadata>
  <g
     transform="translate(19.479983,-272.20344)"
     id="layer1"
     inkscape:groupmode="layer"
     inkscape:label="Lager 1">
    <g
       style="fill:#c0c6c9;fill-opacity:1"
       transform="matrix(0.29184114,0,0,0.29184114,-21.522871,270.16055)"
       id="g355">
      <g
         style="fill:#c0c6c9;fill-opacity:1"
         transform="translate(0,-952.36218)"
         id="g337">
        <path
           inkscape:connector-curvature="0"
           style="color:#000000;fill:#c0c6c9;fill-opacity:1;enable-background:accumulate"
           d="m 50,959.36218 c -21.71497,0 -39.64706,16.088 -42.5624999,37 0.71027,-1.6236 2.23457,-2.8144 4.0624999,-3 0.16809,-0.017 0.32741,0 0.5,0 2.76142,0 5,2.2386 5,5 0,0.2801 -0.0182,0.5449 -0.0625,0.8125 l 15.375,10.00002 c 3.36016,-1.2162 7.45797,-0.5994 9.6875,2.1875 -4,-1 -11,2 -15,4 0.21225,-1.4858 0.83902,-2.7339 1.71875,-3.75 L 14.75,1002.5184 c -0.79102,0.5249 -1.72966,0.8438 -2.75,0.8438 -2.3920799,0 -4.38286,-1.6932 -4.875,-3.93752 C 7.0596,1000.3944 7,1001.376 7,1002.3622 c 0,23.7482 19.25176,43 43,43 23.74824,0 43,-19.2518 43,-43 0,-23.74822 -19.25176,-43.00002 -43,-43.00002 z m -12,15.5938 c 0,6.3885 -10,8.4062 -15,6.4062 4,-1 11,-4.0177 15,-6.4062 z m 17,4 c 3,2.3885 14,10.4062 17,11.4062 -5,2 -17,-5.0177 -17,-11.4062 z m -25,9.0312 c 1.15414,-0.01 2.34782,0.1495 3.5,0.4375 a 2.0009763,2.0009763 0 0 1 -1,3.875 c -3.39128,-0.8478 -6.56515,-0.06 -9.09375,2.4687 a 2.0002,2.0002 0 1 1 -2.8125,-2.8437 c 2.60355,-2.6036 5.94384,-3.9215 9.40625,-3.9375 z m 21.53125,6.3438 a 2.0049378,2.0049378 0 0 1 0.40625,0 2.0002,2.0002 0 0 1 0.40625,0.031 c 6.46209,1.077 12.05218,4.4306 15.375,9.96882 a 2.004364,2.004364 0 0 1 -3.4375,2.0624 c -2.67718,-4.4619 -7.08709,-7.13952 -12.625,-8.06242 a 2.0049378,2.0049378 0 0 1 -0.125,-4 z"
           fill="#000000"
           stroke="none"
           marker="none"
           visibility="visible"
           display="inline"
           overflow="visible"
           id="path335" />
      </g>
    </g>
  </g>
</svg>
