<?xml version="1.0" encoding="UTF-8" standalone="no"?>
<svg
   xmlns:dc="http://purl.org/dc/elements/1.1/"
   xmlns:cc="http://creativecommons.org/ns#"
   xmlns:rdf="http://www.w3.org/1999/02/22-rdf-syntax-ns#"
   xmlns:svg="http://www.w3.org/2000/svg"
   xmlns="http://www.w3.org/2000/svg"
   xmlns:sodipodi="http://sodipodi.sourceforge.net/DTD/sodipodi-0.dtd"
   xmlns:inkscape="http://www.inkscape.org/namespaces/inkscape"
   inkscape:version="1.0beta1 (32d4812, 2019-09-19)"
   sodipodi:docname="total_income.svg"
   height="34.091297"
   width="34.096214"
   id="svg843"
   xml:space="preserve"
   viewBox="0 0 34.096214 34.091298"
   y="0px"
   x="0px"
   version="1.1"><sodipodi:namedview
   inkscape:current-layer="svg843"
   inkscape:window-maximized="1"
   inkscape:window-y="23"
   inkscape:window-x="0"
   inkscape:cy="28.300816"
   inkscape:cx="-40.022851"
   inkscape:zoom="2.4706087"
   fit-margin-bottom="0"
   fit-margin-right="0"
   fit-margin-left="0"
   fit-margin-top="0"
   inkscape:snap-global="false"
   showgrid="false"
   id="namedview843"
   inkscape:window-height="932"
   inkscape:window-width="1680"
   inkscape:pageshadow="2"
   inkscape:pageopacity="0"
   guidetolerance="10"
   gridtolerance="10"
   objecttolerance="10"
   borderopacity="1"
   inkscape:document-rotation="0"
   bordercolor="#666666"
   pagecolor="#ffffff" />

  <metadata
   id="metadata849">
    <rdf:RDF>
      <cc:Work
   rdf:about="">
        <dc:format>image/svg+xml</dc:format>


        <dc:type
   rdf:resource="http://purl.org/dc/dcmitype/StillImage" />


        <dc:title></dc:title>


      </cc:Work>


    </rdf:RDF>


  </metadata>


  <defs
   id="defs847">
    <style
   id="style833"
   type="text/css">
   
    .fil0 {fill:black}
   
  </style>


  </defs>


  

<g
   style="fill:#c0c6c9;fill-opacity:1"
   transform="matrix(0.26637626,0,0,0.26637626,2.4136103e-5,-0.00490643)"
   id="g1111">
  <path
     style="fill:#c0c6c9;fill-opacity:1"
     inkscape:connector-curvature="0"
     d="m 81.78711,42.82825 a 2.00058,2.00058 0 0 0 -0.11523,-1.99512 c -0.15625,-0.2373 -3.88965,-5.82611 -9.94043,-6.67957 a 12.44849,12.44849 0 0 0 -9.21777,2.61322 11.06071,11.06071 0 0 0 -8.36621,-2.69525 c -5.89844,0.70892 -9.67578,6.536 -9.834,6.78406 a 2.00154,2.00154 0 0 0 -0.05371,2.06055 l 7.46387,13.1803 C 42.00787,67.96948 31,83.81659 31,94.66449 a 33.00169,33.00169 0 1 0 66,0 C 97,83.54938 85.44366,67.187 75.56152,55.2276 Z m -33.40527,-0.75 c 1.09766,-1.34375 3.40039,-3.70111 6.25879,-4.037 2.08691,-0.23926 4.22656,0.66895 6.3623,2.71674 a 2.001,2.001 0 0 0 1.38379,0.55566 h 0.12988 a 1.999,1.999 0 0 0 1.30273,-0.48242 c 2.48438,-2.13373 4.94922,-3.04388 7.33105,-2.71967 3.04688,0.41992 5.40137,2.746 6.499,4.04291 l -5.94727,11.8465 H 55.13379 Z M 62,89.00049 h 4 a 6.00651,6.00651 0 0 1 6,5.99994 v 3.99994 a 6.00655,6.00655 0 0 1 -6,5.99994 v 3.99994 a 2,2 0 0 1 -4,0 v -3.99994 a 6.00655,6.00655 0 0 1 -6,-5.99994 2,2 0 1 1 4,0 2.00255,2.00255 0 0 0 2,1.99994 h 4 a 2.00255,2.00255 0 0 0 2,-1.99994 v -3.99994 a 2.00261,2.00261 0 0 0 -2,-2 h -4 a 6.00651,6.00651 0 0 1 -6,-5.99994 v -3.99994 a 6.00655,6.00655 0 0 1 6,-5.99994 v -3.99994 a 2,2 0 0 1 4,0 v 3.99994 a 6.00655,6.00655 0 0 1 6,5.99994 2,2 0 0 1 -4,0 2.00255,2.00255 0 0 0 -2,-1.99994 h -4 a 2.00255,2.00255 0 0 0 -2,1.99994 v 3.99994 a 2.00261,2.00261 0 0 0 2,2 z"
     id="path1082" />
  <path
     style="fill:#c0c6c9;fill-opacity:1"
     inkscape:connector-curvature="0"
     d="m 35,72.49646 c 0.31427,-0.52252 0.645,-1.05383 0.97766,-1.58624 A 5.33056,5.33056 0 0 1 35,71 Z"
     id="path1084" />
  <path
     style="fill:#c0c6c9;fill-opacity:1"
     inkscape:connector-curvature="0"
     d="m 31,75 v -4 a 6.00476,6.00476 0 0 1 -6,-6 2,2 0 0 1 4,0 2.00591,2.00591 0 0 0 2,2 h 4 a 2.00591,2.00591 0 0 0 2,-2 v -4 a 2.00587,2.00587 0 0 0 -2,-2 h -4 a 6.00476,6.00476 0 0 1 -6,-6 v -4 a 6.00476,6.00476 0 0 1 6,-6 v -4 a 2,2 0 0 1 4,0 v 4 a 6.00476,6.00476 0 0 1 6,6 2,2 0 0 1 -4,0 2.00587,2.00587 0 0 0 -2,-2 h -4 a 2.00587,2.00587 0 0 0 -2,2 v 4 a 2.00591,2.00591 0 0 0 2,2 h 4 a 6.00476,6.00476 0 0 1 6,6 v 2.46484 c 1.80084,-2.50128 3.75592,-5.08441 5.90118,-7.76752 L 40.7793,44.88666 a 6.00186,6.00186 0 0 1 0.16113,-6.18262 c 0.45721,-0.7171 4.3551,-6.53839 10.84778,-8.23212 L 51.79,30.47 C 49.4,27.22 46.94,24.1 44.56,21.23 l 6.23,-12.4 a 2.015,2.015 0 0 0 -0.12,-2 C 50.52,6.6 46.78,1.01 40.73,0.15 a 12.438,12.438 0 0 0 -9.22,2.62 11.04314,11.04314 0 0 0 -8.36,-2.7 c -5.9,0.71 -9.68,6.54 -9.84,6.79 A 2.02656,2.02656 0 0 0 13.26,8.92 L 20.72,22.1 C 11.01,33.97 0,49.82 0,60.66 a 33.30493,33.30493 0 0 0 27.05,32.79 l 0.003,2.4e-4 c 0.27191,-4.65381 2.09479,-10.17328 5.44617,-16.52136 A 1.994,1.994 0 0 1 31,75 Z M 17.38,8.08 c 1.1,-1.35 3.4,-3.7 6.26,-4.04 2.09,-0.24 4.23,0.67 6.36,2.72 a 2.04678,2.04678 0 0 0 1.39,0.55 h 0.13 a 2.0076,2.0076 0 0 0 1.3,-0.48 c 2.48,-2.13 4.95,-3.05 7.33,-2.72 3.05,0.42 5.4,2.75 6.5,4.04 L 40.7,20 H 24.13 Z"
     id="path1086" />
  <path
     style="fill:#c0c6c9;fill-opacity:1"
     inkscape:connector-curvature="0"
     d="m 92.01361,70.91028 c 0.33331,0.5332 0.67163,1.06909 0.98639,1.59241 V 71 a 5.44477,5.44477 0 0 1 -0.98639,-0.08972 z"
     id="path1088" />
  <path
     style="fill:#c0c6c9;fill-opacity:1"
     inkscape:connector-curvature="0"
     d="m 112.79,8.83 a 2.015,2.015 0 0 0 -0.12,-2 C 112.52,6.6 108.78,1.01005 102.73,0.15 a 12.438,12.438 0 0 0 -9.22,2.62 11.04314,11.04314 0 0 0 -8.36,-2.7 c -5.9,0.71 -9.68,6.54 -9.84,6.79 a 2.02656,2.02656 0 0 0 -0.05,2.06 l 7.47,13.18 c -2.30988,2.81989 -4.68982,5.85968 -6.97968,9.00958 a 21.14418,21.14418 0 0 1 9.26434,7.52612 5.999,5.999 0 0 1 0.34764,5.9863 L 80.2976,54.7094 87.33,63.91 A 1.97506,1.97506 0 0 1 89,63 a 2.00587,2.00587 0 0 1 2,2 2.00591,2.00591 0 0 0 2,2 h 4 a 2.00591,2.00591 0 0 0 2,-2 v -4 a 2.00587,2.00587 0 0 0 -2,-2 h -4 a 6.00476,6.00476 0 0 1 -6,-6 v -4 a 6.00476,6.00476 0 0 1 6,-6 v -4 a 2,2 0 0 1 4,0 v 4 a 6.00476,6.00476 0 0 1 6,6 2,2 0 0 1 -4,0 2.00587,2.00587 0 0 0 -2,-2 h -4 a 2.00587,2.00587 0 0 0 -2,2 v 4 a 2.00591,2.00591 0 0 0 2,2 h 4 a 6.00476,6.00476 0 0 1 6,6 v 4 a 6.00476,6.00476 0 0 1 -6,6 v 4 a 1.99393,1.99393 0 0 1 -1.50012,1.9292 q 5.0051,9.47525 5.44287,16.45 c 0.002,0.02332 0.006,0.04761 0.007,0.07086 A 33.29687,33.29687 0 0 0 128,60.66 C 128,49.55 116.44,33.19 106.56,21.23 Z M 102.70215,20.00134 H 86.13379 l -6.752,-11.92267 c 1.09766,-1.34375 3.40039,-3.70111 6.25879,-4.037 2.08984,-0.23828 4.22656,0.66895 6.3623,2.71674 a 2.001,2.001 0 0 0 1.38379,0.55566 h 0.12988 a 1.999,1.999 0 0 0 1.30273,-0.48242 c 2.48438,-2.13275 4.9502,-3.04681 7.33105,-2.71967 3.04688,0.41992 5.40137,2.746 6.499,4.04291 z"
     id="path1090" />
</g>
</svg>
