<?xml version="1.0" encoding="UTF-8" standalone="no"?>
<svg
   xmlns:dc="http://purl.org/dc/elements/1.1/"
   xmlns:cc="http://creativecommons.org/ns#"
   xmlns:rdf="http://www.w3.org/1999/02/22-rdf-syntax-ns#"
   xmlns:svg="http://www.w3.org/2000/svg"
   xmlns="http://www.w3.org/2000/svg"
   xmlns:sodipodi="http://sodipodi.sourceforge.net/DTD/sodipodi-0.dtd"
   xmlns:inkscape="http://www.inkscape.org/namespaces/inkscape"
   inkscape:version="1.0beta1 (32d4812, 2019-09-19)"
   height="12.170834mm"
   width="25.4mm"
   sodipodi:docname="town_icon.svg"
   id="svg841"
   xml:space="preserve"
   enable-background="new 0 0 100 100"
   viewBox="0 0 96 46.000001"
   y="0px"
   x="0px"
   version="1.1">
  <metadata
     id="metadata847">
    <rdf:RDF>
      <cc:Work
         rdf:about="">
        <dc:format>image/svg+xml</dc:format>
        <dc:type
           rdf:resource="http://purl.org/dc/dcmitype/StillImage" />
        <dc:title></dc:title>
      </cc:Work>
    </rdf:RDF>
  </metadata>
  <defs
     id="defs845" />
  <sodipodi:namedview
     units="mm"
     inkscape:current-layer="svg841"
     inkscape:window-maximized="0"
     inkscape:window-y="23"
     inkscape:window-x="0"
     inkscape:cy="201.33752"
     inkscape:cx="53.106659"
     inkscape:zoom="1.3908134"
     fit-margin-bottom="0"
     fit-margin-right="0"
     fit-margin-left="0"
     fit-margin-top="0"
     showgrid="false"
     id="namedview843"
     inkscape:window-height="907"
     inkscape:window-width="1600"
     inkscape:pageshadow="2"
     inkscape:pageopacity="0"
     guidetolerance="10"
     gridtolerance="10"
     objecttolerance="10"
     borderopacity="1"
     inkscape:document-rotation="0"
     bordercolor="#666666"
     pagecolor="#ffffff" />
  <g
     style="fill:#c0c6c9;fill-opacity:1"
     transform="translate(-2,-26)"
     id="g835">
    <path
       style="fill:#c0c6c9;fill-opacity:1"
       inkscape:connector-curvature="0"
       id="path833"
       d="M 88.896,45.39 79,55.339 V 34 H 64 V 50 H 59 V 26 H 30 V 50.977 L 29.985,50.779 17.678,35.704 2,51.373 V 72 H 13 V 61 h 6 V 72 H 98 V 54.546 Z M 40,48 h -6 v -6 h 6 z m 0,-12 h -6 v -6 h 6 z m 15,12 h -6 v -6 h 6 z m 0,-12 h -6 v -6 h 6 z m 31,30 h -2 v -7 h 2 z m 4,0 h -2 v -7 h 2 z" />
  </g>
</svg>
