<?xml version="1.0" encoding="UTF-8" standalone="no"?>
<svg
   xmlns:dc="http://purl.org/dc/elements/1.1/"
   xmlns:cc="http://creativecommons.org/ns#"
   xmlns:rdf="http://www.w3.org/1999/02/22-rdf-syntax-ns#"
   xmlns:svg="http://www.w3.org/2000/svg"
   xmlns="http://www.w3.org/2000/svg"
   xmlns:sodipodi="http://sodipodi.sourceforge.net/DTD/sodipodi-0.dtd"
   xmlns:inkscape="http://www.inkscape.org/namespaces/inkscape"
   inkscape:version="1.0beta1 (32d4812, 2019-09-19)"
   height="134.74141"
   width="127.78"
   sodipodi:docname="townspeople.svg"
   id="svg845"
   clip-rule="evenodd"
   fill-rule="evenodd"
   y="0px"
   x="0px"
   viewBox="0 0 127.77999 134.74141"
   style="image-rendering:optimizeQuality;shape-rendering:geometricPrecision;text-rendering:geometricPrecision"
   version="1.1"
   xml:space="preserve">
  <metadata
     id="metadata849">
    <rdf:RDF>
      <cc:Work
         rdf:about="">
        <dc:format>image/svg+xml</dc:format>
        <dc:type
           rdf:resource="http://purl.org/dc/dcmitype/StillImage" />
        <dc:title></dc:title>
      </cc:Work>
    </rdf:RDF>
  </metadata>
  <sodipodi:namedview
     inkscape:current-layer="g839"
     inkscape:window-maximized="0"
     inkscape:window-y="23"
     inkscape:window-x="0"
     inkscape:cy="560"
     inkscape:cx="117.13286"
     inkscape:zoom="0.35"
     fit-margin-bottom="0"
     fit-margin-right="0"
     fit-margin-left="0"
     fit-margin-top="0"
     showgrid="false"
     id="namedview847"
     inkscape:window-height="907"
     inkscape:window-width="1600"
     inkscape:pageshadow="2"
     inkscape:pageopacity="0"
     guidetolerance="10"
     gridtolerance="10"
     objecttolerance="10"
     borderopacity="1"
     inkscape:document-rotation="0"
     bordercolor="#666666"
     pagecolor="#ffffff" />
  <defs
     id="defs835">
    <style
       id="style833"
       type="text/css">
   
    .fil0 {fill:black}
   
  </style>
  </defs>
  <g
     transform="translate(-0.01)"
     id="g839">
    <path
       style="stroke-width:0.185786;fill:#c0c6c9;fill-opacity:1"
       inkscape:connector-curvature="0"
       id="path837"
       d="m 63.0138,0 c 8.391962,0 15.195453,6.8034891 15.195453,15.193592 0,8.39196 -6.803491,15.195449 -15.195453,15.195449 -8.391958,0 -15.195448,-6.803489 -15.195448,-15.195449 C 47.818352,6.8034891 54.621842,0 63.0138,0 Z m 41.05689,0 c 8.39195,0 15.19358,6.8034891 15.19358,15.193592 0,8.39196 -6.80163,15.195449 -15.19358,15.195449 -8.391967,0 -15.195457,-6.803489 -15.195457,-15.195449 C 88.875233,6.8034891 95.678723,0 104.07069,0 Z m 13.85778,89.156918 v 37.855792 c 0,4.25078 -3.47791,7.7287 -7.7287,7.7287 H 99.713997 c -4.250785,0 -7.728702,-3.47792 -7.728702,-7.7287 V 89.156918 c -2.181131,0 -3.962819,-0.899206 -5.384084,-2.318613 2.450521,-3.777031 3.554091,-8.910302 3.554091,-12.856399 V 41.538069 c 0,-2.799797 -1.042263,-5.365504 -2.757069,-7.327406 0.771013,-0.260101 1.595905,-0.401298 2.452376,-0.401298 H 120.0613 c 4.25079,0 7.7287,3.477916 7.7287,7.728704 v 32.443837 c 0,6.04548 -2.91498,15.175012 -9.86153,15.175012 z M 21.958776,0 c 8.390103,0 15.193592,6.8034891 15.193592,15.193592 0,8.39196 -6.803489,15.195449 -15.193592,15.195449 -8.39196,0 -15.1954492,-6.803489 -15.1954492,-15.195449 C 6.7633268,6.8034891 13.566816,0 21.958776,0 Z m 13.855932,89.156918 v 37.855792 c 0,4.25078 -3.476059,7.7287 -7.726846,7.7287 H 17.600233 c -4.250787,0 -7.726846,-3.47792 -7.726846,-7.7287 V 89.156918 C 2.9249848,89.156918 0.01,80.027386 0.01,73.981906 V 41.538069 c 0,-4.250788 3.4779168,-7.728704 7.7287039,-7.728704 H 37.949391 c 0.856474,0 1.681365,0.141197 2.452377,0.401298 -1.714806,1.961902 -2.757066,4.527609 -2.757066,7.327406 v 32.443837 c 0,3.946097 1.105427,9.079368 3.554089,12.856399 -1.421264,1.419407 -3.202953,2.318613 -5.384083,2.318613 z m 41.058742,0 v 37.855792 c 0,4.25078 -3.477917,7.7287 -7.728707,7.7287 H 58.658976 c -4.25079,0 -7.728707,-3.47792 -7.728707,-7.7287 V 89.156918 c -6.948402,0 -9.863386,-9.129532 -9.863386,-15.175012 V 41.538069 c 0,-4.250788 3.477917,-7.728704 7.728705,-7.728704 h 30.210688 c 4.250785,0 7.728702,3.477916 7.728702,7.728704 v 32.443837 c 0,6.04548 -2.913127,15.175012 -9.861528,15.175012 z"
       class="fil0" />
  </g>
</svg>
