<?xml version="1.0" encoding="UTF-8" standalone="no"?>
<svg
   xmlns:dc="http://purl.org/dc/elements/1.1/"
   xmlns:cc="http://creativecommons.org/ns#"
   xmlns:rdf="http://www.w3.org/1999/02/22-rdf-syntax-ns#"
   xmlns:svg="http://www.w3.org/2000/svg"
   xmlns="http://www.w3.org/2000/svg"
   xmlns:sodipodi="http://sodipodi.sourceforge.net/DTD/sodipodi-0.dtd"
   xmlns:inkscape="http://www.inkscape.org/namespaces/inkscape"
   sodipodi:docname="unemployment_icon.svg"
   inkscape:version="1.0beta1 (32d4812, 2019-09-19)"
   id="svg8"
   version="1.1"
   viewBox="0 0 24.341667 25.108957"
   height="25.108957mm"
   width="24.341667mm">
  <defs
     id="defs2" />
  <sodipodi:namedview
     inkscape:window-maximized="1"
     inkscape:window-y="23"
     inkscape:window-x="0"
     inkscape:window-height="932"
     inkscape:window-width="1680"
     fit-margin-bottom="0"
     fit-margin-right="0"
     fit-margin-left="0"
     fit-margin-top="0"
     showgrid="false"
     inkscape:document-rotation="0"
     inkscape:current-layer="layer1"
     inkscape:document-units="mm"
     inkscape:cy="-440.60846"
     inkscape:cx="381.31627"
     inkscape:zoom="0.63575142"
     inkscape:pageshadow="2"
     inkscape:pageopacity="0.0"
     borderopacity="1.0"
     bordercolor="#666666"
     pagecolor="#ffffff"
     id="base" />
  <metadata
     id="metadata5">
    <rdf:RDF>
      <cc:Work
         rdf:about="">
        <dc:format>image/svg+xml</dc:format>
        <dc:type
           rdf:resource="http://purl.org/dc/dcmitype/StillImage" />
        <dc:title></dc:title>
      </cc:Work>
    </rdf:RDF>
  </metadata>
  <g
     transform="translate(-1.4047788,-271.25608)"
     id="layer1"
     inkscape:groupmode="layer"
     inkscape:label="Lager 1">
    <g
       transform="matrix(0.26458333,0,0,0.26458333,-668.80927,148.52886)"
       id="g74">
      <g
         transform="translate(2529.0925,461.35093)"
         id="g42"
         style="opacity:1;fill:#c0c6c9;fill-opacity:1;stop-opacity:1">
        <path
           style="fill:#c0c6c9;fill-opacity:1"
           inkscape:connector-curvature="0"
           d="m 76.1,52.6 v -9.3 c -7.5,1.2 -15.6,1.9 -22.9,2.2 v 0.4 c 0,4.3 -3.5,7.7 -7.7,7.7 h -5.9 c -4.3,0 -7.7,-3.5 -7.7,-7.7 V 45.5 C 24.6,45.1 16.5,44.5 9,43.3 v 21.4 c 0,3.8 3.1,6.9 6.9,6.9 h 35.9 c 2.9,-10.7 12.6,-18.8 24.3,-19 z"
           id="path34" />
        <path
           style="fill:#c0c6c9;fill-opacity:1"
           inkscape:connector-curvature="0"
           d="m 39.6,32.4 h 5.9 c 4.2,0 7.7,3.4 7.7,7.7 10.7,-0.4 19.5,-1.6 26.3,-2.9 0.9,-0.2 1.6,-1 1.6,-2 V 24.4 c 0,-3.8 -3.1,-6.9 -6.9,-6.9 H 58.8 V 12.4 C 58.8,6.9 54.4,2.5 48.9,2.5 H 36.2 c -5.5,0 -9.9,4.4 -9.9,9.9 v 5.1 H 10.9 C 7.1,17.5 4,20.6 4,24.4 v 10.7 c 0,1 0.7,1.8 1.6,2 6.8,1.3 15.6,2.5 26.3,2.9 0.1,-4.2 3.5,-7.6 7.7,-7.6 z m -5.5,-20 c 0,-1.2 0.9,-2.1 2.1,-2.1 h 12.7 c 1.2,0 2.1,0.9 2.1,2.1 v 5.1 H 34.1 Z"
           id="path36" />
        <path
           style="fill:#c0c6c9;fill-opacity:1"
           inkscape:connector-curvature="0"
           d="m 39.6,37.9 c -1.2,0 -2.2,1 -2.2,2.2 v 5.8 c 0,1.2 1,2.2 2.2,2.2 h 5.8 c 1.2,0 2.2,-1 2.2,-2.2 v -5.8 c 0,-1.2 -1,-2.2 -2.2,-2.2 z"
           id="path38" />
        <path
           style="fill:#c0c6c9;fill-opacity:1"
           inkscape:connector-curvature="0"
           d="m 76.6,58.6 c -10.7,0 -19.4,8.7 -19.4,19.4 0,10.7 8.7,19.4 19.4,19.4 C 87.3,97.4 96,88.8 96,78.1 96,67.4 87.3,58.6 76.6,58.6 Z m 0,31 C 70.2,89.6 65,84.4 65,78 c 0,-1.7 0.4,-3.4 1.1,-4.9 l 15.4,15.4 c -1.6,0.8 -3.2,1.1 -4.9,1.1 z M 87,83 71.6,67.6 c 1.5,-0.7 3.2,-1.1 4.9,-1.1 6.4,0 11.6,5.2 11.6,11.6 0,1.7 -0.3,3.3 -1.1,4.9 z"
           id="path40" />
      </g>
    </g>
  </g>
</svg>
